<svg width="20" height="22" viewBox="0 0 20 22" fill="none" xmlns="http://www.w3.org/2000/svg">
<g clip-path="url(#clip0)">
<path fill-rule="evenodd" clip-rule="evenodd" d="M11.5651 11.8212H18.3574C19.2611 11.8212 20 12.561 20 13.4636V19.9029C20 20.8065 19.2599 21.5456 18.3574 21.5456H11.5651C10.6614 21.5456 9.92233 20.8065 9.92233 19.9029V13.4636C9.92233 12.561 10.6614 11.8212 11.5651 11.8212ZM3.5881 11.8489C3.32597 11.8489 3.10767 11.6119 3.10767 11.325C3.10767 11.0319 3.31966 10.8009 3.5881 10.8009H7.69379C7.95592 10.8009 8.17439 11.0382 8.17439 11.325C8.17439 11.6182 7.96223 11.8489 7.69379 11.8489H3.5881ZM15.3937 3.18868H17.1159C17.4531 3.18868 17.7652 3.32597 17.9833 3.5504C18.2077 3.77501 18.3452 4.08079 18.3452 4.41779V10.236H17.2842V4.41779C17.2842 4.36782 17.2654 4.32434 17.2342 4.29313C17.2032 4.26192 17.1595 4.24316 17.1096 4.24316H15.3876V10.2362H14.3331V1.22929C14.3331 1.17932 14.3143 1.13566 14.2831 1.10462C14.2519 1.07341 14.2081 1.05465 14.1583 1.05465H1.22315C1.17318 1.05465 1.12935 1.07324 1.09831 1.10462C1.06693 1.13583 1.04834 1.17932 1.04834 1.22929V15.8433C1.04834 15.8933 1.0671 15.9367 1.09831 15.9679C1.12952 15.9992 1.17318 16.0179 1.22298 16.0179H8.0385V17.0724H3.99979V19.0316C3.99979 19.0816 4.01855 19.1254 4.04976 19.1566C4.0808 19.1875 4.12463 19.2066 4.17443 19.2066L8.0385 19.2062V20.2607H4.18074C3.84374 20.2607 3.53181 20.1234 3.31352 19.8988C3.08874 19.6746 2.95162 19.3688 2.95162 19.0314V17.0726H1.22929C0.89229 17.0726 0.580366 16.9349 0.362071 16.7107C0.137289 16.4857 0 16.1799 0 15.8429V1.22929C0 0.89229 0.137289 0.580366 0.361896 0.361896C0.586503 0.137289 0.89229 0 1.22929 0H14.1646C14.5014 0 14.8135 0.137289 15.032 0.36172C15.2564 0.586503 15.3937 0.892115 15.3937 1.22911V3.18868ZM3.58179 5.02288C3.31966 5.02288 3.10136 4.78565 3.10136 4.49862C3.10136 4.20546 3.31352 3.97454 3.58179 3.97454H11.7933C12.0555 3.97454 12.2736 4.21177 12.2736 4.49862C12.2736 4.79179 12.0618 5.02288 11.7933 5.02288H3.58179ZM3.58179 8.43617C3.31966 8.43617 3.10136 8.19894 3.10136 7.91209C3.10136 7.61892 3.31352 7.388 3.58179 7.388H11.7933C12.0555 7.388 12.2736 7.62506 12.2736 7.91209C12.2736 8.20525 12.0618 8.43617 11.7933 8.43617H3.58179ZM12.9518 17.321C12.5999 17.321 12.3146 17.0358 12.3146 16.6837C12.3146 16.3319 12.5999 16.0467 12.9518 16.0467H14.3235V14.6738C14.3235 14.3221 14.6089 14.0368 14.9606 14.0368C15.3124 14.0368 15.5978 14.3221 15.5978 14.6738V16.0467H16.9705C17.3224 16.0467 17.6077 16.3319 17.6077 16.6837C17.6077 17.0358 17.3224 17.321 16.9705 17.321H15.5989V18.6939C15.5989 19.0456 15.3136 19.3309 14.9617 19.3309C14.61 19.3309 14.3245 19.0456 14.3245 18.6939V17.321H12.9518Z" fill="black"/>
</g>
<defs>
<clipPath id="clip0">
<rect width="20" height="21.5456" fill="white"/>
</clipPath>
</defs>
</svg>
