<svg width="12" height="18" viewBox="0 0 12 18" fill="none" xmlns="http://www.w3.org/2000/svg">
<path d="M10.6437 16.172H10.6407V13.6055C10.6407 12.7374 10.0841 11.6537 9.38555 11.1385L6.7031 9.16764V8.8325L9.38541 6.86163C10.0841 6.34648 10.6406 5.26276 10.6406 4.39461V1.82816H10.6436C11.1089 1.82816 11.4843 1.44973 11.4843 0.984436V0.843721C11.4843 0.378432 11.1089 0 10.6436 0H1.35992C0.894628 0 0.515625 0.378432 0.515625 0.843721V0.984294C0.515625 1.44958 0.894342 1.82801 1.35963 1.82801L1.36349 4.39446C1.36349 5.26276 1.91006 6.34577 2.61021 6.85977L5.29695 8.83393V9.16593L2.60807 11.1402C1.90821 11.6542 1.35935 12.7372 1.35935 13.6055V16.172C0.894057 16.172 0.515625 16.5504 0.515625 17.0157V17.1563C0.515625 17.6216 0.894628 18 1.35992 18H10.6437C11.109 18 11.4844 17.6216 11.4844 17.1563V17.0157C11.4844 16.5504 11.109 16.172 10.6437 16.172ZM10.0781 16.1721H9.37498V13.9664C9.37498 13.3254 8.97269 12.5251 8.4564 12.1448L6.17381 10.4614C6.07481 10.3881 5.9401 10.3879 5.84095 10.4609L3.54636 12.146C3.0295 12.5257 2.62493 13.3252 2.62493 13.9664V16.172H1.92178V13.6055C1.92178 12.9205 2.3905 11.9992 2.94264 11.5937L5.7451 9.53522C5.81724 9.48222 5.85924 9.39807 5.85924 9.3085V8.69164C5.85924 8.60207 5.81824 8.51793 5.74624 8.46492L2.94193 6.40648C2.38964 6.00091 1.92178 5.07961 1.92178 4.39461V1.82816H10.0781V4.39461C10.0781 5.0799 9.60327 6.00233 9.05155 6.40905L6.25939 8.46407C6.18753 8.51707 6.14053 8.60093 6.14053 8.69036V9.30979C6.14053 9.39908 6.18296 9.48308 6.25481 9.53608L9.05169 11.5912C9.60313 11.998 10.0781 12.9204 10.0781 13.6057V16.1721Z" fill="black"/>
</svg>
