<svg width="16" height="19" viewBox="0 0 16 19" fill="none" xmlns="http://www.w3.org/2000/svg">
<path d="M13.2735 3.25202C12.1101 3.25202 11.1641 4.22433 11.1641 5.42003V16.3324C11.1641 16.9299 10.6908 17.4164 10.1094 17.4164H6.94536C6.36394 17.4164 5.89067 16.9299 5.89067 16.3324H6.41801C6.70949 16.3324 6.94536 16.0899 6.94536 15.7904V14.0287C9.10982 13.7482 9.88129 12.9669 9.96675 12.8727C10.0584 12.7722 10.1094 12.6398 10.1094 12.5022V4.57024C9.97853 4.43792 9.82051 4.34253 9.62947 4.33707C9.37093 4.31167 9.13612 4.45299 8.99243 4.67528C8.65873 5.18975 8.10049 5.49674 7.499 5.49674C6.89751 5.49674 6.33926 5.18975 6.00556 4.67528C5.72645 4.24443 5.05283 4.24443 4.77372 4.67528C4.44002 5.18975 3.88177 5.49674 3.28028 5.49674C2.67879 5.49674 2.12055 5.18975 1.78684 4.67528C1.59422 4.37942 1.28784 4.31322 1.05865 4.34498C0.961904 4.35994 0.771814 4.42126 0.617302 4.60327V12.5022C0.617302 12.6398 0.668279 12.7722 0.759966 12.8727C0.845466 12.9669 1.61743 13.7492 3.78397 14.0292L3.78129 15.7893C3.78129 16.0912 4.0187 16.3324 4.30864 16.3324H4.83598C4.83598 17.528 5.782 18.5004 6.94536 18.5004H10.1094C11.2728 18.5004 12.2188 17.528 12.2188 16.3324V5.42003C12.2188 4.82245 12.6921 4.33602 13.2735 4.33602C13.8549 4.33602 14.3282 4.82245 14.3282 5.42003V17.9584C14.3282 18.2579 14.564 18.5004 14.8555 18.5004C15.147 18.5004 15.3829 18.2579 15.3829 17.9584V5.42003C15.3829 4.22433 14.4368 3.25202 13.2735 3.25202ZM4.30864 9.79219C4.01716 9.79219 3.78129 9.54977 3.78129 9.25018C3.78129 8.9506 4.01716 8.70818 4.30864 8.70818H4.83598V8.16618C4.83598 7.86659 5.07185 7.62417 5.36333 7.62417C5.65481 7.62417 5.89067 7.86659 5.89067 8.16618V8.70818H6.41801C6.70949 8.70818 6.94536 8.9506 6.94536 9.25018C6.94536 9.54977 6.70949 9.79219 6.41801 9.79219H5.89067V10.3342C5.89067 10.6338 5.65481 10.8762 5.36333 10.8762C5.07185 10.8762 4.83598 10.6338 4.83598 10.3342V9.79219H4.30864Z" fill="black"/>
<path d="M9.58203 1.08401H5.89062V0.542003C5.89062 0.24242 5.65476 0 5.36328 0C5.0718 0 4.83594 0.24242 4.83594 0.542003V1.08401H1.14453C0.853051 1.08401 0.617188 1.32643 0.617188 1.62601V3.36031C0.711477 3.32902 0.801231 3.28826 0.902481 3.27265C1.60079 3.1705 2.27491 3.47326 2.66423 4.07402C2.94334 4.50488 3.61697 4.50488 3.89607 4.07402C4.22981 3.55955 4.78805 3.25202 5.38954 3.25202C5.99103 3.25202 6.54928 3.55955 6.88298 4.07402C7.16209 4.50488 7.83571 4.50488 8.11482 4.07402C8.45984 3.54156 9.04386 3.2303 9.65927 3.25307C9.8141 3.25758 9.96499 3.2823 10.1094 3.32519V1.62601C10.1094 1.32643 9.87351 1.08401 9.58203 1.08401Z" fill="black"/>
</svg>
