<?xml version="1.0" encoding="utf-8"?>
<!-- Generator: Adobe Illustrator 21.0.0, SVG Export Plug-In . SVG Version: 6.00 Build 0)  -->
<svg version="1.1" id="Layer_1" xmlns="http://www.w3.org/2000/svg" xmlns:xlink="http://www.w3.org/1999/xlink" x="0px" y="0px"
	 viewBox="0 0 100 100" style="enable-background:new 0 0 100 100;" xml:space="preserve">
<g>
	<g>
		<path d="M38.6,20.7c0,0-18,12.6-18,30.1c0,9.9,8.1,18,18,18c9.9,0,18-8.1,18-18C56.6,33,38.6,20.7,38.6,20.7z M30.5,54.9
			C28.9,52.9,28,50.5,28,48c0-2.4,0.6-4.8,1.8-7.2l1.4,0.7c-1.1,2.2-1.6,4.4-1.6,6.5c0,2.1,0.8,4.2,2.1,5.8L30.5,54.9z"/>
	</g>
	<g>
		<path d="M67.6,47.9c0,0-11.7,8.3-11.7,19.6c0,6.5,5.3,11.7,11.7,11.7c6.5,0,11.7-5.3,11.7-11.7C79.4,56,67.6,47.9,67.6,47.9z
			 M62.1,70.4c-1.1-1.3-1.7-3-1.7-4.7c0-1.6,0.4-3.2,1.2-4.9l1.4,0.7c-0.7,1.4-1,2.8-1,4.2c0,1.3,0.5,2.6,1.3,3.6L62.1,70.4z"/>
	</g>
</g>
</svg>
