<svg width="30" height="30" viewBox="0 0 30 30" fill="none" xmlns="http://www.w3.org/2000/svg">
<path d="M18.5228 19.3723H17.6421V17.6108H20.2843C20.7707 17.6108 21.165 17.2165 21.165 16.7301C21.165 16.2437 20.7707 15.8494 20.2843 15.8494H16.7613C16.2749 15.8494 15.8806 16.2437 15.8806 16.7301V20.2531C15.8806 20.7394 16.2749 21.1338 16.7613 21.1338H18.5228C19.0085 21.1338 19.4036 21.5289 19.4036 22.0145C19.4036 22.5001 19.0085 22.8952 18.5228 22.8952H16.7613C16.2749 22.8952 15.8806 23.2896 15.8806 23.7759C15.8806 24.2623 16.2749 24.6567 16.7613 24.6567H18.5228C19.9798 24.6567 21.1651 23.4714 21.1651 22.0144C21.1651 20.5575 19.9797 19.3723 18.5228 19.3723Z" fill="#C4C4C4"/>
<path d="M13.2385 22.8953H11.2569L13.3714 20.076C13.7166 19.616 13.899 19.0681 13.899 18.4916C13.899 17.0347 12.7137 15.8494 11.2568 15.8494C9.79986 15.8494 8.61456 17.0347 8.61456 18.4916C8.61456 18.978 9.0089 19.3723 9.49529 19.3723C9.98167 19.3723 10.376 18.978 10.376 18.4916C10.376 18.006 10.7711 17.6109 11.2567 17.6109C11.7424 17.6109 12.1375 18.006 12.1375 18.4916C12.1375 18.6839 12.0769 18.8661 11.9623 19.019L8.79064 23.2476C8.59048 23.5145 8.55831 23.8715 8.70749 24.1699C8.85661 24.4683 9.16159 24.6568 9.49523 24.6568H13.2384C13.7248 24.6568 14.1192 24.2624 14.1192 23.7761C14.1193 23.2896 13.7249 22.8953 13.2385 22.8953Z" fill="#C4C4C4"/>
<path d="M25.569 3.46031H24.6883V2.64223C24.6883 1.18529 23.503 0 22.0461 0C20.5892 0 19.4039 1.18529 19.4039 2.64223V3.46031H10.5964V2.64223C10.5964 1.18529 9.41111 0 7.95418 0C6.49724 0 5.31195 1.18529 5.31195 2.64223V3.46031H4.43123C2.97429 3.46031 1.789 4.64561 1.789 6.10254V27.3578C1.789 28.8147 2.97429 30 4.43123 30H25.569C27.026 30 28.2113 28.8147 28.2113 27.3578V6.10254C28.2113 4.64561 27.026 3.46031 25.569 3.46031ZM21.1653 2.64223C21.1653 2.1566 21.5604 1.7615 22.046 1.7615C22.5317 1.7615 22.9268 2.1566 22.9268 2.64223V6.16518C22.9268 6.6508 22.5317 7.0459 22.046 7.0459C21.5604 7.0459 21.1653 6.6508 21.1653 6.16518V2.64223ZM7.07346 2.64223C7.07346 2.1566 7.46855 1.7615 7.95418 1.7615C8.4398 1.7615 8.8349 2.1566 8.8349 2.64223V6.16518C8.8349 6.6508 8.4398 7.0459 7.95418 7.0459C7.46855 7.0459 7.07346 6.6508 7.07346 6.16518V2.64223ZM26.4498 27.3578C26.4498 27.8434 26.0547 28.2385 25.569 28.2385H4.43123C3.9456 28.2385 3.55051 27.8434 3.55051 27.3578V12.2677H26.4498V27.3578ZM26.4498 10.5063H3.55051V6.10254C3.55051 5.61691 3.9456 5.22182 4.43123 5.22182H5.31195V6.16523C5.31195 7.62217 6.49724 8.80746 7.95418 8.80746C9.41111 8.80746 10.5964 7.62217 10.5964 6.16523V5.22182H19.4038V6.16523C19.4038 7.62217 20.5891 8.80746 22.046 8.80746C23.503 8.80746 24.6883 7.62217 24.6883 6.16523V5.22182H25.569C26.0546 5.22182 26.4497 5.61691 26.4497 6.10254V10.5063H26.4498Z" fill="#C4C4C4"/>
</svg>
