<svg width="15" height="15" viewBox="0 0 15 15" fill="none" xmlns="http://www.w3.org/2000/svg">
<path d="M8.3282 7.50079L14.8279 1.00105C15.0567 0.772215 15.0567 0.4012 14.8279 0.172391C14.5991 -0.0564172 14.228 -0.0564465 13.9992 0.172391L7.49951 6.67213L0.999801 0.172391C0.770963 -0.0564465 0.399948 -0.0564465 0.17114 0.172391C-0.0576684 0.401229 -0.0576977 0.772244 0.17114 1.00105L6.67084 7.50076L0.17114 14.0005C-0.0576977 14.2293 -0.0576977 14.6004 0.17114 14.8292C0.285544 14.9436 0.435514 15.0008 0.585485 15.0008C0.735455 15.0008 0.885396 14.9436 0.99983 14.8292L7.49951 8.32945L13.9992 14.8292C14.1136 14.9436 14.2636 15.0008 14.4136 15.0008C14.5635 15.0008 14.7135 14.9436 14.8279 14.8292C15.0567 14.6003 15.0567 14.2293 14.8279 14.0005L8.3282 7.50079Z" fill="black"/>
</svg>
