<svg width="18" height="18" viewBox="0 0 18 18" fill="none" xmlns="http://www.w3.org/2000/svg">
<path d="M9 0C4.03752 0 0 4.03731 0 9C0 13.9627 4.03752 18 9 18C13.9627 18 18 13.9627 18 9C18 4.03731 13.9625 0 9 0ZM9 16.6861C4.76191 16.6861 1.31386 13.2381 1.31386 9C1.31386 4.76191 4.76191 1.31386 9 1.31386C13.2381 1.31386 16.6861 4.76188 16.6861 8.99979C16.6861 13.2381 13.2381 16.6861 9 16.6861Z" fill="black"/>
<path d="M12.0658 8.99998H9.21905V5.05836C9.21905 4.69552 8.92496 4.40143 8.56212 4.40143C8.19927 4.40143 7.90519 4.69552 7.90519 5.05836V9.65691C7.90519 10.0198 8.19927 10.3138 8.56212 10.3138H12.0658C12.4286 10.3138 12.7227 10.0198 12.7227 9.65691C12.7227 9.29406 12.4286 8.99998 12.0658 8.99998Z" fill="black"/>
</svg>
