<svg width="20" height="22" viewBox="0 0 20 22" fill="none" xmlns="http://www.w3.org/2000/svg">
<path d="M9.50317 0C7.13265 0 5.20459 1.92859 5.20459 4.29912V6.52638C5.20459 8.89708 7.13265 10.8257 9.50317 10.8257C11.8739 10.8257 13.8017 8.89708 13.8017 6.52638V4.29912C13.8018 1.92859 11.8739 0 9.50317 0Z" fill="black"/>
<path d="M18.9836 16.4279C17.6071 14.0822 15.407 12.3432 12.7885 11.5311C12.7277 11.5123 12.6621 11.5283 12.6169 11.573C11.3988 12.774 9.88518 13.711 9.50678 13.9374C9.10287 13.6792 7.40149 12.5702 6.39002 11.573C6.34497 11.5283 6.27879 11.5123 6.21843 11.5311C3.59957 12.3433 1.39958 14.0824 0.0236278 16.4281C-0.00787594 16.4818 -0.00787594 16.5485 0.0236278 16.6022C1.97756 19.9317 5.61 22 9.50344 22C13.3971 22 17.0297 19.9317 18.9836 16.6022C19.0153 16.5483 19.0153 16.4816 18.9836 16.4279ZM15.3499 17.7103C15.3499 17.8051 15.2596 17.8776 15.165 17.8776H14.0007C13.9059 17.8776 13.8024 17.9591 13.8024 18.0542V19.2582C13.8024 19.3528 13.7517 19.4252 13.6568 19.4252H12.6112C12.5164 19.4252 12.427 19.3528 12.427 19.2582V18.0542C12.4266 17.9593 12.3618 17.8776 12.267 17.8776H11.0526C10.9577 17.8776 10.8792 17.8049 10.8792 17.7103V16.6736C10.8792 16.5788 10.9577 16.5022 11.0526 16.5022H12.267C12.3618 16.5022 12.4266 16.4248 12.4266 16.3297V15.1243C12.4266 15.0294 12.516 14.9546 12.6109 14.9546H13.6452C13.7399 14.9546 13.8022 15.0294 13.8022 15.1243V16.3332C13.8022 16.4283 13.8941 16.502 13.9891 16.502H15.165C15.2596 16.502 15.3499 16.5823 15.3499 16.6771V17.7103Z" fill="black"/>
</svg>
