<svg width="20" height="16" viewBox="0 0 20 16" fill="none" xmlns="http://www.w3.org/2000/svg">
<path d="M0.41714 1.71703C3.16206 4.04168 7.97855 8.13145 9.39417 9.40664C9.58421 9.57875 9.78804 9.66625 9.99964 9.66625C10.2108 9.66625 10.4143 9.57957 10.6039 9.40828C12.0207 8.13184 16.8372 4.04168 19.5822 1.71703C19.7531 1.57258 19.7791 1.31867 19.6408 1.14207C19.3209 0.733984 18.8441 0.5 18.333 0.5H1.66632C1.15526 0.5 0.678351 0.733985 0.358546 1.14211C0.220187 1.31867 0.246241 1.57258 0.41714 1.71703Z" fill="black"/>
<path d="M19.7583 2.97685C19.6106 2.9081 19.4369 2.93209 19.314 3.03709C16.2699 5.61764 12.3848 8.92537 11.1625 10.0268C10.4764 10.6461 9.5243 10.6461 8.83664 10.026C7.53375 8.85209 3.17094 5.14318 0.686016 3.03705C0.562305 2.93205 0.388164 2.90889 0.24168 2.97682C0.0944141 3.04521 0 3.19252 0 3.35486V13.8334C0 14.7526 0.747461 15.5001 1.66668 15.5001H18.3334C19.2525 15.5001 20 14.7526 20 13.8334V3.35486C20 3.19252 19.9056 3.04482 19.7583 2.97685Z" fill="black"/>
</svg>
