<svg width="19" height="20" viewBox="0 0 19 20" fill="none" xmlns="http://www.w3.org/2000/svg">
<path d="M15.1462 0V1.22449H16.5274L13.8328 3.77953C12.8789 2.80336 11.5487 2.19633 10.0792 2.19633C8.10254 2.19633 6.3777 3.29445 5.48207 4.91254C5.40535 4.90918 5.32824 4.90715 5.25066 4.90715C2.35543 4.90715 0 7.26258 0 10.1579C0 12.846 2.03062 15.0684 4.6384 15.3726V16.9998H2.80531V18.2243H4.63848V20H5.86297V18.2243H7.77613V16.9998H5.86297V15.3726C7.57969 15.1723 9.04609 14.1408 9.84785 12.6923C9.92457 12.6956 10.0016 12.6977 10.0792 12.6977C12.9745 12.6977 15.3299 10.3422 15.3299 7.44699C15.3299 6.46313 15.0577 5.54176 14.5849 4.75387L17.5114 1.97895V3.49977H18.7359V0H15.1462ZM5.25074 14.184C3.0307 14.184 1.22457 12.3779 1.22457 10.1578C1.22457 8.02422 2.89273 6.27332 4.9932 6.14008C4.88574 6.55805 4.82855 6.99594 4.82855 7.44699C4.82855 9.80887 6.39621 11.8113 8.54563 12.4689C7.81649 13.5054 6.61145 14.184 5.25074 14.184ZM9.09629 11.3516C7.34984 10.9117 6.05309 9.32805 6.05309 7.44699C6.05309 7.03152 6.11637 6.63055 6.23375 6.2532C7.9802 6.69305 9.27695 8.27676 9.27695 10.1578C9.27695 10.5733 9.21363 10.9742 9.09629 11.3516ZM10.3368 11.4646C10.4443 11.0467 10.5014 10.6088 10.5014 10.1578C10.5014 7.7959 8.93379 5.79348 6.78441 5.13578C7.51356 4.09937 8.71863 3.42074 10.0793 3.42074C12.2994 3.42074 14.1055 5.22687 14.1055 7.44695C14.1054 9.58051 12.4373 11.3314 10.3368 11.4646Z" fill="black"/>
</svg>
