<svg width="20" height="20" viewBox="0 0 20 20" fill="none" xmlns="http://www.w3.org/2000/svg">
<path d="M18.3066 4.43593L18.0074 4.53079L16.4139 4.67276L15.9638 5.3915L15.6373 5.28773L14.3691 4.14436L14.1851 3.54976L13.9388 2.91569L13.1417 2.20077L12.2014 2.01678L12.1798 2.44714L13.101 3.34604L13.5517 3.87698L13.0449 4.14182L12.6324 4.02022L12.0143 3.76239L12.0353 3.26392L11.2242 2.93033L10.9549 4.10235L10.1375 4.2876L10.2184 4.94141L11.2834 5.1464L11.4674 4.10171L12.3466 4.23158L12.7553 4.47095H13.411L13.8598 5.36985L15.0497 6.57688L14.9624 7.04607L14.0031 6.92384L12.3453 7.76099L11.1516 9.19275L10.9963 9.82682H10.5679L9.76954 9.45885L8.99414 9.82682L9.18704 10.6449L9.52444 10.2559L10.1178 10.2374L10.0764 10.9721L10.5679 11.116L11.0587 11.6673L11.8602 11.4419L12.7757 11.5864L13.8388 11.8723L14.3697 11.9347L15.2699 12.9564L17.0073 13.9782L15.8836 16.1249L14.6976 16.6762L14.2475 17.903L12.5312 19.0489L12.3485 19.7097C16.7361 18.6529 20 14.7116 20 9.99934C19.9987 7.94115 19.3748 6.02557 18.3066 4.43593Z" fill="black"/>
<path d="M11.1508 15.226L10.4225 13.8757L11.0909 12.4828L10.4225 12.2829L9.67189 11.5291L8.00904 11.1561L7.45709 10.0012V10.6869H7.2139L5.78088 8.74393V7.14792L4.73046 5.43988L3.06252 5.73718H1.93889L1.37357 5.36667L2.09486 4.79498L1.37548 4.96114C0.508405 6.44191 0.00292969 8.16015 0.00292969 10.0006C0.00292969 15.522 4.47899 20 10.001 20C10.4263 20 10.8433 19.9624 11.2558 19.9128L11.1514 18.7013C11.1514 18.7013 11.6104 16.9022 11.6104 16.8411C11.6098 16.7793 11.1508 15.226 11.1508 15.226Z" fill="black"/>
<path d="M3.71861 3.22447L5.49478 2.97683L6.31347 2.52801L7.23465 2.79348L8.70652 2.71199L9.21072 1.9194L9.94601 2.04036L11.7317 1.87293L12.2238 1.33053L12.9177 0.867074L13.8994 1.01477L14.2572 0.960657C12.9642 0.35205 11.5255 0 10.0008 0C6.89725 0 4.12223 1.41457 2.29004 3.63573H2.29513L3.71861 3.22447ZM10.4235 0.994398L11.4446 0.432264L12.1003 0.811052L11.1511 1.53361L10.2446 1.62465L9.83651 1.35982L10.4235 0.994398ZM7.3989 1.07652L7.84963 1.26432L8.43977 1.07652L8.76126 1.63356L7.3989 1.99134L6.74382 1.6081C6.74318 1.6081 7.38426 1.19557 7.3989 1.07652Z" fill="black"/>
</svg>
