<svg width="231" height="164" viewBox="0 0 231 164" fill="none" xmlns="http://www.w3.org/2000/svg">
<g clip-path="url(#clip0)">
<path opacity="0.1" d="M76.798 163.908C88.0476 163.908 97.1671 162.44 97.1671 160.629C97.1671 158.818 88.0476 157.35 76.798 157.35C65.5485 157.35 56.429 158.818 56.429 160.629C56.429 162.44 65.5485 163.908 76.798 163.908Z" fill="#6C63FF"/>
<path opacity="0.1" d="M187.521 164C201.559 164 212.939 162.532 212.939 160.721C212.939 158.91 201.559 157.442 187.521 157.442C173.484 157.442 162.104 158.91 162.104 160.721C162.104 162.532 173.484 164 187.521 164Z" fill="#6C63FF"/>
<path opacity="0.1" d="M2.89318 70.8598H24.1089V99.8428H4.44637C4.39411 100.14 4.34394 100.44 4.28958 100.74H24.1089V124.114C24.0733 124.103 24.042 124.091 24.0085 124.078C23.4483 123.856 22.8922 123.621 22.3362 123.37L21.9808 123.208C21.4234 122.944 20.8659 122.665 20.3085 122.37C20.1141 122.268 19.9197 122.161 19.7273 122.052C16.6327 120.314 13.8213 118.113 11.3907 115.523C11.3197 115.454 11.2528 115.381 11.1817 115.314C10.8431 114.945 10.5107 114.572 10.1888 114.191L9.83338 113.772C9.45293 113.304 9.08501 112.825 8.72755 112.339C8.67529 112.267 8.62512 112.196 8.57077 112.129C7.11698 110.109 5.90987 107.921 4.97524 105.613C4.94598 105.544 4.92089 105.468 4.89372 105.403C4.60663 104.663 4.3523 103.916 4.13071 103.162C4.03455 102.845 3.94257 102.533 3.86314 102.204C3.83387 102.108 3.80879 102.013 3.78579 101.919C2.59843 97.274 2.45837 92.4488 2.45837 87.6571C2.45837 87.0976 2.45837 86.5361 2.45837 85.9809C2.45837 84.0428 2.48137 82.0922 2.51482 80.1437C2.51482 79.6387 2.53572 79.1359 2.54617 78.6288C2.57544 77.3424 2.61725 76.0559 2.6716 74.7695C2.68414 74.4112 2.70086 74.055 2.71968 73.6988C2.71968 73.4935 2.73013 73.2881 2.75103 73.0828C2.8012 72.3369 2.84301 71.5973 2.89318 70.8598Z" fill="#6C63FF"/>
<path opacity="0.1" d="M24.1088 38.5895H12.4714C14.3632 35.6218 16.4301 32.77 18.6612 30.0494C20.39 27.9207 22.2149 25.8464 24.1088 23.8476V38.5895Z" fill="#6C63FF"/>
<path opacity="0.1" d="M24.1088 39.4862V69.963H2.95996C2.95996 69.875 2.97459 69.785 2.98086 69.697C2.99968 69.456 3.01849 69.2151 3.0394 68.9762C3.06239 68.6954 3.08748 68.4126 3.11465 68.1381C3.14183 67.8637 3.17109 67.5284 3.20245 67.2246C3.23381 66.9208 3.26307 66.6128 3.29861 66.309C3.33415 66.0052 3.3655 65.7014 3.40313 65.3997C3.44076 65.098 3.47421 64.7921 3.51392 64.4904C3.54528 64.2389 3.57872 63.9896 3.61217 63.7382C3.66025 63.3841 3.71042 63.0279 3.76477 62.6759C3.76477 62.6235 3.77941 62.5691 3.78777 62.5188C4.16931 59.942 4.68918 57.3878 5.34513 54.8671C6.03175 52.2229 6.90854 49.6321 7.96861 47.1148C9.09528 44.4815 10.4144 41.9352 11.9153 39.4967L24.1088 39.4862Z" fill="#6C63FF"/>
<path opacity="0.1" d="M29.1738 70.8577V99.8427H74.4879V70.8577H29.1738ZM29.1738 100.737V125.628C29.433 125.683 29.6902 125.735 29.9452 125.779C30.2922 125.846 30.6371 125.907 30.9904 125.959C31.0573 125.97 31.1263 125.98 31.1994 125.987C31.3374 126.01 31.4796 126.029 31.6175 126.047C31.9666 126.096 32.3136 126.135 32.6627 126.167C32.8279 126.184 32.9951 126.198 33.1624 126.211L33.5658 126.242C33.7853 126.259 34.0027 126.272 34.218 126.278C34.3518 126.278 34.4856 126.291 34.6236 126.295C34.7281 126.295 34.8326 126.295 34.9413 126.295C35.05 126.295 35.2047 126.295 35.3364 126.295C35.5162 126.295 35.6959 126.295 35.8736 126.295H36.114C36.2938 126.295 36.4736 126.295 36.6513 126.278H36.6638C36.7871 126.278 36.9126 126.278 37.038 126.261C37.0728 126.263 37.1077 126.263 37.1425 126.261C37.247 126.261 37.3516 126.261 37.4519 126.247H37.5251L38.2254 126.192C38.4553 126.171 38.6873 126.144 38.9215 126.119L39.3981 126.062C41.3371 125.79 43.2546 125.381 45.1363 124.839C49.3631 123.657 53.498 122.004 57.7227 120.793C63.185 119.232 69.2201 118.465 74.4984 120.374V100.737H29.1738ZM74.4879 38.5895V0.00208369C69.5268 -0.051789 64.5791 0.529799 59.7651 1.73272C48.2907 4.62201 37.9954 10.8888 29.1738 18.8924V38.5874H31.4482V39.482H29.1738V69.963H74.4879V39.4841H40.7861V38.5895H74.4879ZM132.692 25.5552C129.853 25.4546 127.031 24.5537 124.478 23.1625C119.597 20.5016 115.699 16.3929 111.342 12.9253C102.291 5.70313 91.065 1.34511 79.5488 0.263984V38.5895H144.237L144.398 38.4197L132.692 25.5552ZM138.584 24.5076L144.833 31.3799V22.7057C142.74 22.9655 140.907 23.5836 138.593 24.4992L138.584 24.5076ZM144.833 131.809V100.737H131.519C131.483 100.605 131.448 100.471 131.406 100.337C131.446 100.471 131.479 100.605 131.517 100.737H79.5572V123.208C80.0505 123.575 80.5376 123.961 81.0205 124.352C81.541 124.771 82.0552 125.214 82.5716 125.647L83.0921 126.079C83.3409 126.288 83.5917 126.498 83.8446 126.695C84.3463 127.103 84.8529 127.505 85.3644 127.902C85.6173 128.111 85.8765 128.3 86.1337 128.497C90.2157 131.625 94.5217 134.448 99.0169 136.943C100.025 137.501 101.041 138.047 102.067 138.579C102.75 138.929 103.438 139.277 104.128 139.614C105.165 140.121 106.21 140.61 107.264 141.081C116.977 145.451 127.248 148.45 137.784 149.991C140.124 150.338 142.473 150.61 144.831 150.809V131.807H145.04L144.833 131.809ZM79.5572 39.4841V69.963H144.841V39.4841H79.5572ZM79.5572 70.8577V99.8427H144.841V70.8577H79.5572ZM149.908 22.668V32.3437L157.883 23.5731C155.241 23.1457 152.583 22.8405 149.908 22.6575V22.668ZM149.908 70.8682V99.8427H213.405V70.8577L149.908 70.8682ZM213.173 134.11L213.396 100.737H149.908V151.142C153.998 151.314 158.094 151.265 162.179 150.995V150.995H162.25C164.201 150.872 166.143 150.693 168.076 150.459H168.12C178.432 149.256 188.516 146.559 198.055 142.453L213.173 134.11ZM225.648 75.6306C225.41 75.067 225.161 74.5075 224.908 73.9544C224.436 72.9068 223.936 71.8885 223.422 70.8703H218.468V99.8427H230.994C230.987 91.6379 228.916 83.2571 225.655 75.6201L225.648 75.6306ZM218.468 100.748V129.452C221.996 126.062 224.977 122.184 227.124 117.75C229.706 112.412 230.887 106.631 230.983 100.744L218.468 100.748ZM218.468 62.4224V69.9651H222.958C221.6 67.3686 220.103 64.8472 218.474 62.4119L218.468 62.4224ZM175.405 28.3544C175.075 28.2287 174.745 28.1009 174.412 27.9773C170.907 26.6798 167.325 25.6008 163.686 24.7464L151.482 38.1704L151.248 38.4197L151.405 38.5916H194.84C188.791 34.418 182.269 30.9781 175.411 28.3439L175.405 28.3544ZM196.113 39.4946H150.799L149.908 40.3117V69.963H157.714H157.726H213.413V55.6004C208.376 49.4941 202.562 44.0759 196.119 39.4841L196.113 39.4946Z" fill="#6C63FF"/>
<path opacity="0.1" d="M24.1088 54.8587V69.9631H2.95996C2.95996 69.8751 2.97459 69.785 2.98086 69.697C2.99968 69.456 3.01849 69.2151 3.0394 68.9762C3.06239 68.6955 3.08748 68.4126 3.11465 68.1381C3.14183 67.8637 3.17109 67.5284 3.20245 67.2246C3.23381 66.9208 3.26307 66.6128 3.29861 66.309C3.33415 66.0052 3.3655 65.7014 3.40313 65.3997C3.44076 65.098 3.47421 64.7921 3.51392 64.4904C3.54528 64.239 3.57872 63.9896 3.61217 63.7382C3.66025 63.3841 3.71042 63.0279 3.76477 62.6759C3.76477 62.6236 3.77941 62.5691 3.78777 62.5188C4.16931 59.942 4.68918 57.3878 5.34513 54.8671L24.1088 54.8587Z" fill="#6C63FF"/>
<path opacity="0.1" d="M2.89318 70.8598H24.1089V99.8428H4.44637C4.39411 100.14 4.34394 100.44 4.28958 100.74H24.1089V124.114C24.0733 124.103 24.042 124.091 24.0085 124.078C23.4483 123.856 22.8922 123.621 22.3362 123.37L21.9808 123.208C21.4234 122.944 20.8659 122.665 20.3085 122.37C20.1141 122.268 19.9197 122.161 19.7273 122.052C16.6327 120.314 13.8213 118.113 11.3907 115.523C11.3197 115.454 11.2528 115.381 11.1817 115.314C10.8431 114.945 10.5107 114.572 10.1888 114.191L9.83338 113.772C9.45293 113.304 9.08501 112.825 8.72755 112.339C8.67529 112.267 8.62512 112.196 8.57077 112.129C7.11698 110.109 5.90987 107.921 4.97524 105.613C4.94598 105.544 4.92089 105.468 4.89372 105.403C4.60663 104.663 4.3523 103.916 4.13071 103.162C4.03455 102.845 3.94257 102.533 3.86314 102.204C3.83387 102.108 3.80879 102.013 3.78579 101.919C2.59843 97.274 2.45837 92.4488 2.45837 87.6571C2.45837 87.0976 2.45837 86.5361 2.45837 85.9809C2.45837 84.0428 2.48137 82.0922 2.51482 80.1437C2.51482 79.6387 2.53572 79.1359 2.54617 78.6288C2.57544 77.3424 2.61725 76.0559 2.6716 74.7695C2.68414 74.4112 2.70086 74.055 2.71968 73.6988C2.71968 73.4935 2.73013 73.2881 2.75103 73.0828C2.8012 72.3369 2.84301 71.5973 2.89318 70.8598Z" fill="#6C63FF"/>
<path opacity="0.1" d="M45.1258 43.8484V69.963H29.1738V43.8484H31.4482V35.0067H40.784V43.8484H45.1258Z" fill="#6C63FF"/>
<path opacity="0.1" d="M45.1259 70.8577H29.176V99.8407H45.1259V70.8577Z" fill="#6C63FF"/>
<path opacity="0.1" d="M29.1738 100.74H45.1258V124.834C43.2441 125.376 41.3266 125.784 39.3876 126.056L38.911 126.115C38.6769 126.142 38.4448 126.165 38.2149 126.188C37.985 126.211 37.7466 126.228 37.5146 126.242H37.4414C37.3411 126.242 37.2324 126.255 37.1342 126.257H37.0275C36.9021 126.257 36.7767 126.27 36.6513 126.274C36.4736 126.284 36.2959 126.286 36.114 126.288C36.0367 126.288 35.9635 126.288 35.8862 126.288C35.7064 126.288 35.5287 126.288 35.3489 126.288H34.9538C34.8472 126.288 34.7448 126.288 34.634 126.288L34.2306 126.274C34.0215 126.274 33.7957 126.251 33.5783 126.236L33.177 126.207L32.6774 126.161C32.3262 126.129 31.9771 126.089 31.6322 126.041L31.2141 125.983L31.005 125.953C30.6559 125.899 30.311 125.84 29.9598 125.773C29.7027 125.729 29.4477 125.675 29.1885 125.622L29.1738 100.74Z" fill="#6C63FF"/>
<path opacity="0.1" d="M144.841 40.7643H131.688V69.961H144.841V40.7643Z" fill="#6C63FF"/>
<path opacity="0.1" d="M144.843 70.8577V99.8428H79.5573V87.3407H114.331V94.7158H131.688V70.8577H144.843Z" fill="#6C63FF"/>
<path opacity="0.1" d="M145.05 131.816H144.841V150.83C142.486 150.63 140.138 150.358 137.796 150.015C127.256 148.468 116.98 145.463 107.264 141.085C104.458 139.819 101.71 138.438 99.0191 136.94C94.5239 134.444 90.2173 131.622 86.1337 128.495C85.108 127.707 84.0956 126.901 83.0963 126.077C82.4044 125.505 81.7167 124.918 81.0205 124.348C80.5377 123.956 80.0506 123.571 79.5573 123.202V100.74H131.515C131.479 100.605 131.444 100.471 131.406 100.339C131.446 100.471 131.483 100.605 131.519 100.74H144.841V131.803C144.912 131.805 144.981 131.811 145.05 131.816Z" fill="#6C63FF"/>
<path opacity="0.1" d="M179.145 38.5895H170.574V35.9202H174.416V27.9689C174.749 28.0904 175.081 28.2154 175.411 28.3439V35.9202H179.145V38.5895Z" fill="#6C63FF"/>
<path opacity="0.1" d="M199.794 69.963H157.718C157.718 69.963 157.718 69.963 157.733 69.9735L157.714 69.963H149.908V40.7664H152.12V62.347H162.227V49.5662H170.576V39.4862H179.147V49.5746H187.496V62.3554H199.794V69.963Z" fill="#6C63FF"/>
<path opacity="0.1" d="M149.908 70.8577V99.8428H199.794V70.8577H149.908ZM213.336 133.961L213.405 111.019H199.794V100.752H149.908V151.142C153.998 151.314 158.094 151.265 162.179 150.995V150.995H162.25C164.201 150.872 166.143 150.693 168.076 150.459H168.12C178.432 149.256 188.516 146.559 198.055 142.453" fill="#6C63FF"/>
<path opacity="0.1" d="M219.354 100.74H230.992C230.889 106.625 229.71 112.406 227.131 117.744C224.984 122.18 222.001 126.058 218.476 129.446V111.008H219.354V100.74Z" fill="#6C63FF"/>
<path opacity="0.1" d="M230.998 99.8428H219.354V75.6201H225.655C228.916 83.2571 230.987 91.6379 230.998 99.8428Z" fill="#6C63FF"/>
<path opacity="0.1" d="M144.843 48.8811H137.797V58.035H144.843V48.8811Z" fill="#6C63FF"/>
<path opacity="0.1" d="M144.843 67.8553H137.797V69.9631H144.843V67.8553Z" fill="#6C63FF"/>
<path opacity="0.1" d="M144.843 70.8577H137.797V77.0071H144.843V70.8577Z" fill="#6C63FF"/>
<path opacity="0.1" d="M144.843 86.8294H137.797V95.9834H144.843V86.8294Z" fill="#6C63FF"/>
<path opacity="0.1" d="M144.843 105.804H137.797V114.958H144.843V105.804Z" fill="#6C63FF"/>
<path opacity="0.1" d="M144.841 131.803C144.912 131.803 144.981 131.803 145.05 131.816H144.841V133.942H137.797V124.778H144.841V131.803Z" fill="#6C63FF"/>
<path opacity="0.1" d="M144.841 143.748V150.819C142.486 150.619 140.138 150.348 137.797 150.004V143.748H144.841Z" fill="#6C63FF"/>
<path opacity="0.1" d="M109.758 99.1702H79.5573V99.8428H109.758V99.1702Z" fill="#6C63FF"/>
<path opacity="0.1" d="M109.758 100.737H79.5573V103.315H109.758V100.737Z" fill="#6C63FF"/>
<path opacity="0.1" d="M109.758 111.762H79.5573V115.907H109.758V111.762Z" fill="#6C63FF"/>
<path opacity="0.1" d="M109.755 124.355V128.499H86.1337C85.108 127.714 84.0948 126.908 83.0942 126.081C82.4023 125.509 81.7166 124.922 81.0184 124.355H109.755Z" fill="#6C63FF"/>
<path opacity="0.1" d="M109.756 136.945V141.085H107.262C104.459 139.818 101.712 138.436 99.0192 136.938L109.756 136.945Z" fill="#6C63FF"/>
<path opacity="0.1" d="M168.126 73.6674H162.181V79.6261H168.126V73.6674Z" fill="#6C63FF"/>
<path opacity="0.1" d="M39.4023 45.9038H33.4572V51.8626H39.4023V45.9038Z" fill="#6C63FF"/>
<path opacity="0.1" d="M39.4023 59.7448H33.4572V65.7035H39.4023V59.7448Z" fill="#6C63FF"/>
<path opacity="0.1" d="M39.4023 73.5857H33.4572V79.5444H39.4023V73.5857Z" fill="#6C63FF"/>
<path opacity="0.1" d="M39.4023 87.4245H33.4572V93.3832H39.4023V87.4245Z" fill="#6C63FF"/>
<path opacity="0.1" d="M39.4023 101.265H33.4572V107.224H39.4023V101.265Z" fill="#6C63FF"/>
<path opacity="0.1" d="M39.4023 115.106H33.4572V121.065H39.4023V115.106Z" fill="#6C63FF"/>
<path opacity="0.1" d="M190.822 73.6674H184.877V79.6261H190.822V73.6674Z" fill="#6C63FF"/>
<path opacity="0.1" d="M168.126 88.3652H162.181V94.324H168.126V88.3652Z" fill="#6C63FF"/>
<path opacity="0.1" d="M190.822 88.3652H184.877V94.324H190.822V88.3652Z" fill="#6C63FF"/>
<path opacity="0.1" d="M168.126 103.061H162.181V109.02H168.126V103.061Z" fill="#6C63FF"/>
<path opacity="0.1" d="M190.822 103.061H184.877V109.02H190.822V103.061Z" fill="#6C63FF"/>
<path opacity="0.1" d="M168.126 117.759H162.181V123.718H168.126V117.759Z" fill="#6C63FF"/>
<path opacity="0.1" d="M190.822 117.759H184.877V123.718H190.822V117.759Z" fill="#6C63FF"/>
<path opacity="0.1" d="M168.126 132.457H162.181V138.415H168.126V132.457Z" fill="#6C63FF"/>
<path opacity="0.1" d="M190.822 132.457H184.877V138.415H190.822V132.457Z" fill="#6C63FF"/>
<path opacity="0.1" d="M162.181 150.995V147.152H168.124V150.448L162.181 150.995Z" fill="#6C63FF"/>
<path opacity="0.1" d="M3.76282 62.5146V65.9235H24.1089V62.5146H3.76282ZM5.79053 65.7098H4.13073V62.7241H5.80307L5.79053 65.7098ZM7.81614 65.7098H6.14381V62.7241H7.81614V65.7098ZM9.83758 65.7098H8.16525V62.7241H9.83758V65.7098ZM11.8632 65.7098H10.193V62.7241H11.8653L11.8632 65.7098ZM13.8867 65.7098H12.2144V62.7241H13.8867V65.7098ZM15.9123 65.7098H14.24V62.7241H15.9123V65.7098ZM17.938 65.7098H16.2656V62.7241H17.938V65.7098ZM19.9615 65.7098H18.2892V62.7241H19.9615V65.7098ZM21.985 65.7098H20.3127V62.7241H21.985V65.7098ZM24.0085 65.7098H22.3362V62.7241H24.0085V65.7098Z" fill="#6C63FF"/>
<path opacity="0.1" d="M3.76282 72.4333V75.8422H24.1089V72.4333H3.76282ZM5.79053 75.6264H4.13073V72.6491H5.80307L5.79053 75.6264ZM7.81614 75.6264H6.14381V72.6491H7.81614V75.6264ZM9.83758 75.6264H8.16525V72.6491H9.83758V75.6264ZM11.8632 75.6264H10.193V72.6491H11.8653L11.8632 75.6264ZM13.8867 75.6264H12.2144V72.6491H13.8867V75.6264ZM15.9123 75.6264H14.24V72.6491H15.9123V75.6264ZM17.938 75.6264H16.2656V72.6491H17.938V75.6264ZM19.9615 75.6264H18.2892V72.6491H19.9615V75.6264ZM21.985 75.6264H20.3127V72.6491H21.985V75.6264ZM24.0085 75.6264H22.3362V72.6491H24.0085V75.6264Z" fill="#6C63FF"/>
<path opacity="0.1" d="M3.76282 82.3562V85.7714H24.1089V82.3562H3.76282ZM5.79053 85.5493H4.13073V82.5699H5.80307L5.79053 85.5493ZM7.81614 85.5493H6.14381V82.5699H7.81614V85.5493ZM9.83758 85.5493H8.16525V82.5699H9.83758V85.5493ZM11.8632 85.5493H10.193V82.5699H11.8653L11.8632 85.5493ZM13.8867 85.5493H12.2144V82.5699H13.8867V85.5493ZM15.9123 85.5493H14.24V82.5699H15.9123V85.5493ZM17.938 85.5493H16.2656V82.5699H17.938V85.5493ZM19.9615 85.5493H18.2892V82.5699H19.9615V85.5493ZM21.985 85.5493H20.3127V82.5699H21.985V85.5493ZM24.0085 85.5493H22.3362V82.5699H24.0085V85.5493Z" fill="#6C63FF"/>
<path opacity="0.1" d="M3.76282 92.2791V95.6838H24.1089V92.2791H3.76282ZM5.79053 95.4722H4.13073V92.4907H5.80307L5.79053 95.4722ZM7.81614 95.4722H6.14381V92.4907H7.81614V95.4722ZM9.83758 95.4722H8.16525V92.4907H9.83758V95.4722ZM11.8632 95.4722H10.193V92.4907H11.8653L11.8632 95.4722ZM13.8867 95.4722H12.2144V92.4907H13.8867V95.4722ZM15.9123 95.4722H14.24V92.4907H15.9123V95.4722ZM17.938 95.4722H16.2656V92.4907H17.938V95.4722ZM19.9615 95.4722H18.2892V92.4907H19.9615V95.4722ZM21.985 95.4722H20.3127V92.4907H21.985V95.4722ZM24.0085 95.4722H22.3362V92.4907H24.0085V95.4722Z" fill="#6C63FF"/>
<path opacity="0.1" d="M3.85059 102.2C3.93211 102.52 4.02409 102.841 4.12025 103.157V102.414H5.79259V105.393H4.89789C4.92506 105.462 4.95224 105.538 4.97941 105.602H24.1089V102.2H3.85059ZM7.82239 105.393H6.15005V102.414H7.82239V105.393ZM9.84383 105.393H8.17149V102.414H9.84383V105.393ZM11.8694 105.393H10.1929V102.414H11.8653L11.8694 105.393ZM13.893 105.393H12.2206V102.414H13.893V105.393ZM15.9186 105.393H14.2463V102.414H15.9186V105.393ZM17.9442 105.393H16.2719V102.414H17.9442V105.393ZM19.9677 105.393H18.2954V102.414H19.9677V105.393ZM21.9913 105.393H20.3189V102.414H21.9913V105.393ZM24.0148 105.393H22.3425V102.414H24.0148V105.393Z" fill="#6C63FF"/>
<path opacity="0.1" d="M8.57495 112.123C8.62721 112.19 8.67738 112.265 8.73173 112.332H9.83757V113.763C9.95672 113.906 10.0738 114.048 10.195 114.182V112.324H11.8674V115.314H11.1901C11.257 115.383 11.3218 115.456 11.3991 115.523H24.1151V112.123H8.57495ZM13.8867 115.314H12.2144V112.336H13.8867V115.314ZM15.9123 115.314H14.24V112.336H15.9123V115.314ZM17.938 115.314H16.2656V112.336H17.938V115.314ZM19.9615 115.314H18.2891V112.336H19.9615V115.314ZM21.985 115.314H20.3127V112.336H21.985V115.314ZM24.0085 115.314H22.3362V112.336H24.0085V115.314Z" fill="#6C63FF"/>
<path opacity="0.1" d="M19.7356 122.044C19.9258 122.152 20.1202 122.253 20.3167 122.362V122.257H21.9891V123.2L22.3444 123.366V122.257H24.0168V124.07C24.0489 124.086 24.0825 124.098 24.1171 124.107V122.044H19.7356Z" fill="#6C63FF"/>
<path opacity="0.1" d="M157.718 69.9631H157.731H157.718ZM144.841 131.801H145.05H144.841ZM131.406 100.337C131.446 100.471 131.479 100.605 131.517 100.737C131.483 100.605 131.448 100.471 131.406 100.337ZM157.718 69.9568H157.731H157.718ZM31.4567 38.5832V39.4778H40.7946V38.5832H31.4567ZM144.841 131.801H145.05H144.841ZM131.406 100.337C131.446 100.471 131.479 100.605 131.517 100.737C131.483 100.605 131.448 100.471 131.406 100.337ZM157.718 69.9568H157.731H157.718ZM144.841 131.795H145.05H144.841ZM131.406 100.337C131.446 100.471 131.479 100.605 131.517 100.737C131.483 100.605 131.448 100.471 131.406 100.337Z" fill="#6C63FF"/>
<path d="M96.4939 79.5486C96.4939 79.5486 95.6702 79.4334 95.6702 78.2307C95.6702 77.0281 95.0807 74.782 95.0807 74.782C95.0807 74.7716 94.5707 70.8703 93.8662 70.2501C93.1617 69.6299 92.2566 65.9885 92.2566 65.9885C92.2566 65.9885 92.1019 64.0127 91.7862 63.5874C91.4706 63.162 91.0441 62.1207 90.4149 60.6352C89.7857 59.1497 87.1622 58.121 87.1622 58.121C87.1622 58.121 82.419 55.3637 81.0749 54.4648C80.9527 54.391 80.8385 54.3046 80.7342 54.2071C80.5 53.8991 79.4799 53.8928 79.4799 53.8928C79.3733 53.2182 79.2709 52.443 79.2374 51.7411C79.2374 51.6656 79.2374 51.5902 79.227 51.5148C80.7258 50.6268 81.8547 49.2267 82.4065 47.5716C82.4316 47.492 82.4525 47.4082 82.4755 47.3286C82.5653 47.2989 82.6479 47.2508 82.7181 47.1873C82.7883 47.1238 82.8445 47.0463 82.8831 46.9598C83.0044 46.6895 83.0065 46.3732 83.157 46.1217C83.3326 45.8242 83.667 45.665 83.9304 45.4408C84.5952 44.8751 84.7666 43.9218 84.7352 43.0544C84.7143 42.3525 84.6015 41.6443 84.6454 40.9466L84.6579 40.7706C84.6704 40.6658 84.6851 40.5611 84.7039 40.4605C84.8063 39.9409 85.03 39.4506 85.1554 38.9352C85.2808 38.4198 85.2934 37.8394 85.0007 37.3952C84.5722 36.7436 83.6796 36.6137 82.8957 36.5466C82.0072 36.4712 81.2129 36.5697 80.6443 35.8301C80.3782 35.4435 80.0788 35.0811 79.7496 34.7469C79.6325 34.6379 78.4953 33.9423 78.4953 33.8962C77.3854 33.381 76.1274 33.2843 74.9521 33.6238C74.3626 33.7956 73.8065 34.0764 73.2087 34.2168C71.9189 34.5227 70.4347 34.1916 69.3393 34.9312C68.7289 35.3503 68.3631 36.0166 68.0202 36.6661C67.7415 37.2011 67.4586 37.7353 67.1715 38.2689C66.7095 39.1468 66.2392 40.0394 66.0448 41.0115C66.0039 41.2231 65.9787 41.4374 65.9695 41.6527V41.6631C65.9695 41.7407 65.9695 41.8182 65.9695 41.8957V41.9942C65.9695 42.0675 65.9695 42.1387 65.9821 42.2037C65.9946 42.2686 65.9925 42.2896 65.9988 42.3336C66.0051 42.3776 66.0155 42.4761 66.028 42.5431C66.0406 42.6102 66.0657 42.7275 66.0908 42.8197C66.1012 42.8595 66.1158 42.8972 66.1284 42.9349C66.1493 43.0062 66.1744 43.0753 66.2016 43.1444C66.2162 43.1801 66.2308 43.2178 66.2475 43.2534C66.2789 43.3267 66.3165 43.398 66.3542 43.4629C66.3709 43.4923 66.3834 43.5195 66.4001 43.5467C66.4585 43.6442 66.5227 43.7379 66.5925 43.8275C67.0398 44.3869 67.6983 44.7431 68.1854 45.2669C68.1854 45.2878 68.1854 45.3088 68.1854 45.3276C68.1854 45.3863 68.1854 45.4429 68.1854 45.5015C68.2112 46.6697 68.5214 47.8139 69.089 48.8345C69.6567 49.8551 70.4645 50.7213 71.4422 51.3576C71.4422 51.4373 71.4527 51.519 71.4569 51.5986C71.4976 52.2205 71.4899 52.8447 71.4339 53.4654C71.3488 53.3649 71.2422 53.2849 71.1221 53.2312C71.002 53.1776 70.8713 53.1516 70.7399 53.1553C70.65 53.1509 70.56 53.1587 70.4723 53.1784L70.4535 53.1637V53.1826C69.9936 53.2957 69.4271 53.7755 68.8857 55.1395C68.8857 55.1395 67.2384 57 65.9842 56.9225C64.7299 56.845 61.5545 58.8585 61.5545 58.8585C61.5545 58.8585 58.4565 60.8741 57.7918 62.9274C57.4202 64.0917 56.9747 65.231 56.4581 66.3384L52.6284 74.2478L51.9219 80.5229C51.9219 80.5229 52.3128 83.3137 52.2354 83.739C52.1581 84.1644 53.843 88.0007 53.843 88.0007C53.843 88.0007 59.4098 97.8041 61.6842 98.307L61.8472 98.1918C61.9445 98.2427 62.0477 98.2814 62.1545 98.307L62.6227 97.9759C62.6509 98.3449 62.639 98.7158 62.5872 99.0822C62.2737 100.05 62.7043 106.367 63.252 107.606C63.7997 108.844 63.6052 125.079 63.6052 125.079L63.5279 126.513C63.5279 126.513 63.5279 126.559 63.5467 126.638L63.5279 126.978L63.5843 127.007C63.643 127.462 63.6239 127.923 63.5279 128.371C63.3314 129 63.252 130.776 63.252 130.776C63.252 130.776 61.6862 140.808 62.4283 142.824C63.1704 144.839 63.8017 147.048 63.8017 147.048C63.8017 147.048 64.5857 149.562 63.8394 149.991C63.0931 150.421 60.9713 151.142 61.4082 152.189C61.8054 153.157 63.3126 155.751 63.5363 156.13L63.5174 156.329L63.2102 159.667C63.2599 160.108 63.3792 160.538 63.5634 160.941C63.9 161.668 64.5543 162.422 65.7981 162.341C66.0071 162.326 66.2496 162.301 66.4838 162.269C68.7602 161.963 71.5635 160.945 71.5635 160.945C71.4179 160.853 71.2845 160.742 71.1663 160.616V160.616C71.0544 160.508 70.9658 160.377 70.9057 160.233C70.8457 160.089 70.8156 159.934 70.8172 159.778C70.8507 159.171 69.7156 156.275 69.4333 155.563C69.3894 155.46 69.3665 155.401 69.3665 155.401C69.3665 155.401 71.9544 152.69 71.5238 150.287C71.5238 150.287 68.6599 148.611 69.6027 147.691C70.5455 146.771 72.2303 144.129 72.2303 144.129C72.2303 144.129 72.3077 134.25 72.2303 132.775C72.1497 131.751 72.1981 130.722 72.3746 129.71C72.4059 129.557 72.4436 129.408 72.4833 129.262C73.7871 129.457 75.1033 129.557 76.4216 129.561C76.9024 129.561 77.3916 129.561 77.8849 129.532C77.8849 129.671 77.8912 129.822 77.9037 129.984C78.0124 132.432 78.2152 136.723 78.3804 138.317C78.6145 140.603 79.9085 146.763 79.9085 146.763C79.9085 146.763 77.4397 148.351 80.3391 152.265C80.3391 152.265 80.3391 153.683 80.1468 153.889C79.9414 154.56 79.776 155.243 79.6513 155.933C79.5301 156.671 79.4799 157.417 79.6764 157.805C80.1468 158.731 82.9688 158.655 82.9688 158.655L83.0378 158.643C83.5706 158.587 84.109 158.639 84.6218 158.794C85.1346 158.949 85.6116 159.204 86.025 159.546C87.0974 160.409 91.1675 160.03 93.3708 159.755C94.2341 159.646 94.8111 159.546 94.8111 159.546C94.839 159.448 94.849 159.345 94.8403 159.244C94.8173 158.701 94.393 157.511 91.5166 156.449C91.5166 156.449 88.8116 154.626 88.8492 153.038H88.7927H88.4792C88.707 153.025 88.8534 153.038 88.8534 153.038C88.8534 153.038 87.7935 149.162 88.2262 148.848C88.659 148.533 87.3629 144.238 87.3629 144.238C87.3629 144.238 86.6208 137.031 86.5811 136.526C86.5827 136.092 86.6483 135.662 86.7755 135.248L86.5811 131.296C86.5811 131.296 86.5435 129.982 86.5811 129.555C86.5747 129.184 86.5447 128.814 86.4912 128.446C86.4724 128.3 86.4536 128.147 86.4327 127.996C87.4465 127.738 88.105 127.499 88.105 127.499L87.9879 113.744C88.8492 112.068 89.0081 108.391 89.0039 105.783C89.0039 104.107 88.9286 102.866 88.9286 102.866L90.1055 100.941C90.1055 100.941 90.3773 98.6359 89.9467 98.131C89.7564 97.9026 89.8421 97.6659 89.9989 97.471C90.0803 97.4063 90.1663 97.3475 90.256 97.295C90.256 97.295 90.2435 97.2761 90.2289 97.2489C90.311 97.1801 90.3984 97.1177 90.4902 97.0624C90.4902 97.0624 90.0721 96.4129 90.4463 96.1384C90.7975 96.3773 91.111 96.5575 91.3493 96.7041C91.3326 96.8571 91.3159 96.9451 91.3159 96.9451L91.4162 96.7356C91.6462 96.8655 91.7862 96.9451 91.7862 96.9451C91.7862 96.9451 93.63 93.2638 93.5903 92.7212C93.5506 92.1785 94.8445 89.8926 94.8445 89.8926C94.8445 89.8926 95.0013 88.6921 95.7079 88.1892C96.4144 87.6864 96.2556 84.0428 96.2556 84.0428C96.2556 84.0428 96.4521 82.1446 96.9224 81.3694C97.3927 80.5941 96.4939 79.5486 96.4939 79.5486ZM61.2159 77.9332L61.2514 78.8111C61.0424 78.4738 60.8919 78.2307 60.8919 78.2307L61.2159 77.9332Z" fill="url(#paint0_linear)"/>
<path d="M91.8866 95.3548L91.4351 97.2824C91.4351 97.2824 87.8187 95.4324 87.1664 93.0816C86.5142 90.7308 88.2576 89.8382 88.2576 89.8382L91.6274 91.2692L91.8866 95.3548Z" fill="white"/>
<path opacity="0.1" d="M91.8866 95.3548L91.4351 97.2824C91.4351 97.2824 87.8187 95.4324 87.1664 93.0816C86.5142 90.7308 88.2576 89.8382 88.2576 89.8382L91.6274 91.2692L91.8866 95.3548Z" fill="black"/>
<path d="M71.5906 160.958C71.5906 160.958 68.2459 162.19 65.9465 162.345C64.7257 162.426 64.0839 161.676 63.7536 160.954C63.5732 160.552 63.4568 160.124 63.4087 159.686L63.7076 156.365L63.8665 154.597L68.7518 153.325L69.4437 155.445L69.5085 155.607C69.7866 156.315 70.9008 159.196 70.8673 159.797C70.866 159.951 70.8956 160.104 70.9545 160.246C71.0134 160.388 71.1004 160.517 71.2102 160.625C71.3223 160.751 71.4502 160.863 71.5906 160.958V160.958Z" fill="white"/>
<path d="M94.4369 159.269C94.4453 159.37 94.4354 159.471 94.4076 159.569C94.4076 159.569 87.2542 160.765 85.7909 159.569C85.3784 159.219 84.8974 158.96 84.379 158.808C83.8607 158.655 83.3162 158.613 82.7807 158.684C82.7807 158.684 80.013 158.76 79.551 157.846C79.3587 157.463 79.4089 156.719 79.528 155.986C79.6496 155.299 79.8115 154.619 80.013 153.951L80.1238 153.863L80.7823 153.333L88.4917 153.105H88.5503C88.5126 154.685 91.1675 156.497 91.1675 156.497C93.9875 157.545 94.4035 158.728 94.4369 159.269Z" fill="white"/>
<path opacity="0.1" d="M94.4369 159.269C94.4442 159.37 94.4336 159.471 94.4055 159.569C94.4055 159.569 87.2542 160.765 85.7909 159.569C85.3786 159.219 84.898 158.96 84.38 158.808C83.862 158.656 83.318 158.614 82.7828 158.684C82.7828 158.684 80.013 158.76 79.5531 157.846C79.3608 157.461 79.4088 156.719 79.528 155.986C80.5941 156.093 82.2769 156.359 82.9375 156.994C83.9367 157.96 85.6299 158.923 86.6689 158.999C87.4821 159.051 92.3465 159.206 94.4369 159.269Z" fill="black"/>
<path opacity="0.1" d="M71.5908 160.958C71.5908 160.958 68.2461 162.19 65.9466 162.345C64.7258 162.426 64.0841 161.676 63.7559 160.951C64.6067 161.239 65.7877 161.54 66.4086 161.264C67.1444 160.937 69.7533 160.725 71.2166 160.635C71.3279 160.757 71.4536 160.866 71.5908 160.958V160.958Z" fill="black"/>
<path d="M76.5533 61.6765C73.794 60.6017 70.2444 57.0503 71.1307 55.3909C71.3276 54.9722 71.4446 54.5202 71.4757 54.0584C71.5327 53.4314 71.5411 52.8009 71.5008 52.1727C71.4386 51.1437 71.3151 50.1194 71.1307 49.1053C71.1307 49.1053 79.7454 49.3002 79.2437 50.5719C79.0974 50.9449 79.0744 51.5923 79.1141 52.3172C79.1538 53.0422 79.2583 53.8614 79.367 54.5549C79.5175 55.5061 79.668 56.2311 79.668 56.2311C79.668 56.2311 79.1413 56.9707 78.8319 57.0105C78.5225 57.0503 80.5126 63.2081 76.5533 61.6765Z" fill="#CF6F80"/>
<path opacity="0.1" d="M69.5023 155.607L69.4375 155.678C66.8621 152.556 63.7474 156.447 63.7474 156.447L63.7014 156.365L63.8603 154.597L68.7456 153.325L69.4375 155.445L69.5023 155.607Z" fill="black"/>
<path opacity="0.1" d="M88.5525 153.325C88.5525 153.325 86.6711 153.285 85.6677 154.173C84.6643 155.062 79.8145 154.366 80.0235 154.173C80.0855 154.078 80.1228 153.969 80.1322 153.855L80.7907 153.325L88.5002 153.097C88.5295 153.237 88.5525 153.325 88.5525 153.325Z" fill="black"/>
<path d="M72.707 128.809C72.5669 129.156 72.4605 129.516 72.3892 129.884C72.2149 130.891 72.1665 131.915 72.245 132.934C72.3224 134.401 72.245 144.23 72.245 144.23C72.245 144.23 70.5915 146.851 69.6696 147.775C68.7477 148.699 71.551 150.358 71.551 150.358C71.9691 152.747 69.4355 155.445 69.4355 155.445C66.8601 152.323 63.7454 156.216 63.7454 156.216C63.7454 156.216 62.0521 153.283 61.6298 152.235C61.2076 151.188 63.2834 150.463 64.0129 150.038C64.7425 149.612 63.9774 147.104 63.9774 147.104C63.9774 147.104 63.3607 144.906 62.6291 142.901C61.8974 140.896 63.436 130.915 63.436 130.915C63.436 130.915 63.5154 129.142 63.7056 128.524C63.8016 128.078 63.8207 127.619 63.7621 127.166C63.7495 127.013 63.7349 126.886 63.7244 126.8C63.714 126.714 63.7056 126.674 63.7056 126.674L63.7349 126.624L64.7801 124.671C64.7801 124.671 73.2087 127.579 72.707 128.809Z" fill="#6C63FF"/>
<path d="M88.5524 153.094C88.5524 153.094 86.671 153.055 85.6676 153.933C84.6642 154.81 79.8144 154.125 80.0235 153.933C80.2325 153.74 80.2158 152.313 80.2158 152.313C77.3707 148.42 79.7977 146.84 79.7977 146.84C79.7977 146.84 78.5267 140.712 78.2968 138.439C78.1358 136.85 77.9372 132.582 77.8306 130.146C77.7846 129.098 77.7574 128.377 77.7574 128.377L80.082 127.908L80.3809 127.847L85.9874 126.72C85.9874 126.72 86.1421 127.768 86.2466 128.625C86.2987 128.99 86.3281 129.359 86.3344 129.729C86.2968 130.148 86.3344 131.459 86.3344 131.459L86.5247 135.392C86.4004 135.805 86.3363 136.233 86.3344 136.664C86.3721 137.165 87.1016 144.334 87.1016 144.334C87.1016 144.334 88.3705 148.613 87.9378 148.921C87.5051 149.229 88.5524 153.094 88.5524 153.094Z" fill="#6C63FF"/>
<path opacity="0.1" d="M79.2438 50.5719C79.0975 50.9449 79.0745 51.5923 79.1142 52.3172C77.9603 53.0137 76.6338 53.3698 75.2871 53.3446C73.9403 53.3194 72.628 52.9139 71.5009 52.1748C71.4388 51.1451 71.3152 50.1201 71.1309 49.1053C71.1309 49.1053 79.7455 49.296 79.2438 50.5719Z" fill="black"/>
<path d="M82.5737 45.9415C82.5754 46.6966 82.4569 47.447 82.2225 48.1646C81.6988 49.7723 80.6249 51.1428 79.1905 52.0337C77.7562 52.9246 76.0537 53.2786 74.3842 53.0331C72.7146 52.7877 71.1853 51.9585 70.0667 50.6923C68.948 49.426 68.312 47.8042 68.2711 46.1134C68.2711 46.0547 68.2711 46.0002 68.2711 45.9415C68.2548 44.9898 68.4278 44.0444 68.78 43.1604C69.1321 42.2764 69.6564 41.4715 70.3222 40.7927C70.9879 40.1139 71.7819 39.5748 72.6577 39.2068C73.5336 38.8387 74.4738 38.6492 75.4234 38.6492C76.3731 38.6492 77.3133 38.8387 78.1892 39.2068C79.065 39.5748 79.859 40.1139 80.5247 40.7927C81.1905 41.4715 81.7147 42.2764 82.0669 43.1604C82.4191 44.0444 82.5921 44.9898 82.5758 45.9415H82.5737Z" fill="#CF6F80"/>
<path opacity="0.1" d="M76.5533 61.6765C73.794 60.6017 70.2444 57.0503 71.1307 55.3909C71.3276 54.9722 71.4446 54.5202 71.4757 54.0584L75.2531 57.1697L77.5902 59.0911L79.367 54.557C79.5175 55.5082 79.668 56.2332 79.668 56.2332C79.668 56.2332 79.1413 56.9728 78.8319 57.0126C78.5225 57.0524 80.5126 63.2081 76.5533 61.6765Z" fill="black"/>
<path d="M86.322 75.4273L83.1675 128.541L79.0536 128.811L68.4008 98.0136L70.1484 61.4502L70.5163 53.7252L75.2532 57.6244L77.5923 59.5457L79.4215 54.8797L82.8226 57.8507L86.322 75.4273Z" fill="#6C63FF"/>
<path opacity="0.1" d="M72.707 128.809C72.5669 129.156 72.4605 129.516 72.3893 129.884C69.3958 129.421 66.4885 128.51 63.7642 127.183L63.7078 127.154L63.7266 126.816L63.737 126.64L64.7822 124.688C64.7822 124.688 73.2087 127.579 72.707 128.809Z" fill="black"/>
<path opacity="0.1" d="M80.13 129.892C79.3648 130.023 78.593 130.111 77.818 130.156C77.772 129.109 77.7449 128.388 77.7449 128.388L80.0694 127.918L80.13 129.892Z" fill="black"/>
<path opacity="0.1" d="M86.2341 128.635C84.7478 129.023 82.4526 129.458 80.3977 129.186L80.3684 127.858L85.9749 126.73C85.9749 126.73 86.1296 127.768 86.2341 128.635Z" fill="black"/>
<path opacity="0.1" d="M80.36 129.429C71.7893 130.896 63.9398 126.691 63.9398 126.691L64.015 125.266C64.015 125.266 64.2094 109.114 63.6701 107.876C63.1308 106.637 62.7106 100.358 63.0158 99.3944C63.321 98.4306 61.9016 83.9779 61.9016 83.9779L61.6717 78.1113L53.2556 74.694L57.0184 66.8328C57.5266 65.7306 57.9637 64.5969 58.327 63.4386C58.9813 61.3979 62.0187 59.3927 62.0187 59.3927C62.0187 59.3927 65.1334 57.3897 66.3647 57.4652C67.5959 57.5406 69.2097 55.6926 69.2097 55.6926C70.4013 52.6483 71.4799 54.0269 71.4799 54.0269C71.4799 54.1715 71.4799 54.0269 71.4214 54.4774C71.0033 57.8193 78.1818 68.3791 78.2842 68.5655L78.9678 85.2559L79.6597 106.378L80.36 129.429Z" fill="black"/>
<path d="M80.1301 129.429C71.5594 130.896 63.7077 126.691 63.7077 126.691L63.7851 125.266C63.7851 125.266 63.9795 109.114 63.4381 107.876C62.8967 106.637 62.4786 100.358 62.7859 99.3944C63.0932 98.4306 61.6717 83.9779 61.6717 83.9779L61.4396 78.1113L53.0194 74.6814L56.7822 66.8202C57.2893 65.7176 57.7264 64.5839 58.0908 63.426C58.743 61.3853 61.7825 59.3802 61.7825 59.3802C61.7825 59.3802 64.8972 57.3772 66.1264 57.4526C67.3555 57.528 68.9714 55.68 68.9714 55.68C70.1651 52.6357 71.4799 54.0144 71.4799 54.0144C71.4799 54.1589 71.3545 54.2239 71.4214 54.4648C72.3412 57.7061 77.9519 68.3665 78.0543 68.553L78.7462 85.2434L79.4382 106.365L80.1301 129.429Z" fill="white"/>
<path opacity="0.1" d="M77.8201 69.0286C76.8982 68.6431 72.015 63.0552 72.015 63.0552V61.7834C71.8373 61.3643 70.7816 61.6199 69.9246 61.9133L70.2925 54.1883L70.7106 54.5361C71.6262 57.7753 77.7135 68.8421 77.8201 69.0286Z" fill="black"/>
<path d="M78.0522 68.5656C77.1282 68.18 72.245 62.5921 72.245 62.5921V61.3203C72.0673 60.9013 71.0116 61.1569 70.1545 61.4502L70.5245 53.7252L70.9426 54.073C71.8603 57.3122 77.9497 68.3812 78.0522 68.5656Z" fill="white"/>
<path opacity="0.1" d="M63.9397 96.4339C64.0547 96.4339 69.8995 95.8179 69.8995 95.8179C69.8995 95.8179 73.4386 102.793 73.2065 104.49C72.9745 106.187 72.5543 107.689 71.1308 107.423C69.7072 107.157 63.4694 107.633 63.4694 107.633L63.9397 96.4339Z" fill="black"/>
<path d="M63.7076 95.9708C63.8226 95.9708 69.6674 95.3548 69.6674 95.3548C69.6674 95.3548 73.2044 102.332 72.9745 104.027C72.7445 105.722 72.3202 107.226 70.8987 106.96C69.4772 106.694 63.2373 107.17 63.2373 107.17L63.7076 95.9708Z" fill="white"/>
<path d="M68.1122 92.696C68.1122 92.696 73.4762 95.5853 73.5911 96.4674C73.7061 97.3495 70.8611 96.0819 70.2465 95.9289C69.842 95.8312 69.4302 95.7668 69.0152 95.7362L64.9159 95.8472L68.1122 92.696Z" fill="#CF6F80"/>
<path opacity="0.1" d="M76.3233 69.389C76.635 69.389 76.8877 69.1357 76.8877 68.8233C76.8877 68.5108 76.635 68.2576 76.3233 68.2576C76.0116 68.2576 75.7589 68.5108 75.7589 68.8233C75.7589 69.1357 76.0116 69.389 76.3233 69.389Z" fill="black"/>
<path d="M76.3233 69.1585C76.635 69.1585 76.8877 68.9052 76.8877 68.5928C76.8877 68.2804 76.635 68.0271 76.3233 68.0271C76.0116 68.0271 75.7589 68.2804 75.7589 68.5928C75.7589 68.9052 76.0116 69.1585 76.3233 69.1585Z" fill="#3F3D56"/>
<path opacity="0.1" d="M77.3624 93.8777C77.6741 93.8777 77.9268 93.6244 77.9268 93.312C77.9268 92.9996 77.6741 92.7463 77.3624 92.7463C77.0507 92.7463 76.798 92.9996 76.798 93.312C76.798 93.6244 77.0507 93.8777 77.3624 93.8777Z" fill="black"/>
<path d="M77.3624 93.6451C77.6741 93.6451 77.9268 93.3919 77.9268 93.0794C77.9268 92.767 77.6741 92.5137 77.3624 92.5137C77.0507 92.5137 76.798 92.767 76.798 93.0794C76.798 93.3919 77.0507 93.6451 77.3624 93.6451Z" fill="#3F3D56"/>
<path opacity="0.1" d="M76.8857 81.6333C77.1974 81.6333 77.4501 81.3801 77.4501 81.0676C77.4501 80.7552 77.1974 80.5019 76.8857 80.5019C76.574 80.5019 76.3213 80.7552 76.3213 81.0676C76.3213 81.3801 76.574 81.6333 76.8857 81.6333Z" fill="black"/>
<path d="M76.8857 81.4029C77.1974 81.4029 77.4501 81.1496 77.4501 80.8372C77.4501 80.5247 77.1974 80.2715 76.8857 80.2715C76.574 80.2715 76.3213 80.5247 76.3213 80.8372C76.3213 81.1496 76.574 81.4029 76.8857 81.4029Z" fill="#3F3D56"/>
<path d="M89.8965 95.6188C89.8965 95.6188 90.2812 96.1971 89.8965 96.4674C89.5119 96.7377 89.9342 97.3914 89.9342 97.3914C89.9342 97.3914 88.9747 97.955 89.3969 98.462C89.8192 98.9691 89.5516 101.259 89.5516 101.259L88.3977 103.174C88.3977 103.174 88.4667 104.408 88.4709 106.076C88.4709 108.678 88.3183 112.336 87.4737 114.004L87.5908 127.688C87.5908 127.688 83.55 129.167 80.1677 128.717L79.666 106.759C79.666 106.759 80.3977 94.3072 80.6673 91.9187C80.8251 90.6787 80.8894 89.4285 80.8596 88.1788C80.8596 88.1788 80.7447 84.4409 80.3579 82.7061C80.3579 82.7061 79.9399 75.1906 79.8981 73.11C79.8792 72.1148 79.9315 69.2109 79.99 66.4494C80.0548 63.4302 80.128 60.5828 80.128 60.5828L79.365 54.5319C79.365 54.5319 80.128 54.4543 80.3579 54.7623C80.4609 54.8588 80.5729 54.9451 80.6924 55.0201V55.0201C82.0094 55.9126 86.6627 58.6573 86.6627 58.6573C86.6627 58.6573 89.238 59.684 89.8547 61.1548C90.4714 62.6256 90.8999 63.6691 91.1989 64.0881C91.4978 64.5071 91.6608 66.4766 91.6608 66.4766C91.6608 66.4766 92.5472 70.1013 93.2391 70.7152C93.931 71.3291 94.4369 75.2346 94.4369 75.2346L88.3224 80.0535C88.3224 80.0535 87.7852 88.0698 87.6702 88.3799C87.5553 88.69 89.8965 95.6188 89.8965 95.6188Z" fill="white"/>
<path d="M90.1286 95.6188C90.1286 95.6188 90.5111 96.1971 90.1286 96.4674C89.746 96.7377 90.1641 97.3914 90.1641 97.3914C90.1641 97.3914 89.2109 97.9613 89.6289 98.4683C90.047 98.9753 89.7836 101.265 89.7836 101.265L88.6297 103.18C88.6297 103.18 88.6987 104.414 88.705 106.082C88.705 108.685 88.5524 112.343 87.7079 114.011L87.8228 127.694C87.8228 127.694 83.7758 129.174 80.3976 128.723L79.898 106.765C79.898 106.765 80.6297 94.3135 80.8993 91.925C81.0573 90.685 81.1209 89.4347 81.0896 88.185C81.0896 88.185 80.9746 84.4472 80.59 82.7124C80.59 82.7124 80.1719 75.1969 80.128 73.1163C80.1092 72.1211 80.1635 69.2172 80.22 66.4557C80.2848 63.4365 80.3579 60.5891 80.3579 60.5891L79.3503 54.4565C79.3503 54.4565 80.3579 54.4564 80.59 54.7686C80.692 54.8662 80.8041 54.9526 80.9244 55.0263C82.2414 55.9189 86.8968 58.6636 86.8968 58.6636C86.8968 58.6636 89.4701 59.6903 90.0868 61.1611C90.7034 62.6319 91.132 63.6753 91.433 64.0944C91.734 64.5134 91.8929 66.4829 91.8929 66.4829C91.8929 66.4829 92.7792 70.1076 93.4711 70.7215C94.1631 71.3354 94.6627 75.2325 94.6627 75.2325L88.5482 80.0515C88.5482 80.0515 88.011 88.0677 87.8939 88.3778C87.7768 88.6879 90.1286 95.6188 90.1286 95.6188Z" fill="white"/>
<path opacity="0.1" d="M82.8058 62.3679L83.3577 63.9812L80.452 66.9145C80.5168 63.8974 80.59 61.048 80.59 61.048L79.5824 54.9153C79.5824 54.9153 80.59 54.9153 80.822 55.2275C80.9238 55.3248 81.0359 55.4105 81.1565 55.4831L83.6274 62.6277L82.8058 62.3679Z" fill="black"/>
<path d="M82.5738 61.9049L83.1277 63.5182L80.2221 66.4515C80.2869 63.4323 80.36 60.5849 80.36 60.5849L79.3503 54.4523C79.3503 54.4523 80.36 54.4523 80.59 54.7644C80.6925 54.8614 80.8046 54.9478 80.9244 55.0222L83.3974 62.1647L82.5738 61.9049Z" fill="white"/>
<path opacity="0.1" d="M82.5737 45.9415C82.5754 46.6966 82.4569 47.447 82.2225 48.1646C82.1831 48.1707 82.1427 48.1689 82.1039 48.1592C82.0652 48.1495 82.0287 48.1321 81.9968 48.108C81.9424 46.2223 81.0164 44.4519 79.8771 42.9454C79.5572 42.4906 79.1695 42.0878 78.7274 41.7511C78.2804 41.4147 77.7245 41.2571 77.1679 41.3091C76.5408 41.395 75.9868 41.8224 75.3534 41.8769C74.5172 41.946 73.7689 41.3656 72.939 41.3363C72.6016 41.3395 72.2688 41.4148 71.9627 41.5572C71.6567 41.6995 71.3845 41.9056 71.1642 42.1618C70.7282 42.6787 70.4043 43.281 70.2131 43.9302C69.8844 44.9146 69.7054 45.943 69.6821 46.9808C69.6716 47.5674 69.6152 48.3028 69.0717 48.5166C69.1126 48.0851 69.0637 47.6498 68.928 47.2383C68.7924 46.8268 68.5729 46.448 68.2836 46.1259L68.2711 46.1134C68.2711 46.0547 68.2711 46.0002 68.2711 45.9415C68.2548 44.9898 68.4278 44.0444 68.78 43.1604C69.1321 42.2764 69.6564 41.4715 70.3222 40.7927C70.9879 40.1139 71.7819 39.5748 72.6577 39.2068C73.5336 38.8387 74.4738 38.6492 75.4234 38.6492C76.3731 38.6492 77.3133 38.8387 78.1892 39.2068C79.065 39.5748 79.859 40.1139 80.5247 40.7927C81.1905 41.4715 81.7147 42.2764 82.0669 43.1604C82.4191 44.0444 82.5921 44.9898 82.5758 45.9415H82.5737Z" fill="black"/>
<path d="M78.3846 34.5583C77.2983 34.0461 76.0628 33.9493 74.9103 34.2859C74.3312 34.4577 73.7856 34.7364 73.1982 34.8768C71.944 35.1806 70.4807 34.8516 69.4041 35.587C68.8063 36.0061 68.4467 36.6682 68.1122 37.3114L67.2761 38.9079C66.8203 39.7816 66.3605 40.67 66.1702 41.6317C65.98 42.5934 66.095 43.6703 66.7033 44.4435C67.1465 45.0071 67.8008 45.3612 68.2816 45.8912C68.5696 46.2137 68.7881 46.5923 68.9233 47.0033C69.0586 47.4143 69.1077 47.8489 69.0676 48.2798C69.6132 48.0702 69.6654 47.3327 69.678 46.7461C69.7013 45.7083 69.8802 44.6799 70.2089 43.6955C70.3997 43.0461 70.7237 42.4438 71.1601 41.9271C71.3805 41.6712 71.6528 41.4652 71.9588 41.3228C72.2648 41.1805 72.5975 41.1051 72.9348 41.1016C73.771 41.1309 74.5215 41.7092 75.3493 41.6401C75.9764 41.5877 76.5325 41.1582 77.1638 41.0744C77.7204 41.0216 78.2766 41.1793 78.7232 41.5165C79.1652 41.8526 79.5523 42.2555 79.8709 42.7107C81.0122 44.2172 81.9383 45.9834 81.9926 47.8733C82.2289 48.0472 82.5696 47.8209 82.6867 47.5527C82.8037 47.2845 82.8079 46.9703 82.9563 46.7147C83.1277 46.4192 83.4559 46.2621 83.7131 46.04C84.3653 45.4764 84.5283 44.5273 84.5032 43.6661C84.4782 42.805 84.3109 41.9313 84.474 41.0848C84.5722 40.5652 84.7938 40.0791 84.9151 39.5658C85.0363 39.0525 85.0509 38.4763 84.7645 38.0342C84.3465 37.3847 83.4664 37.2569 82.6992 37.1961C81.8275 37.1207 81.0478 37.2171 80.4917 36.4817C80.2307 36.0979 79.9369 35.7376 79.6137 35.4048C79.5029 35.2958 78.3846 34.6044 78.3846 34.5583Z" fill="#512E4E"/>
<path opacity="0.1" d="M55.6638 78.742L53.4793 74.694L52.7874 80.9398C52.7874 80.9398 53.172 83.7139 53.0946 84.1392C53.0173 84.5645 54.6708 88.3778 54.6708 88.3778C54.6708 88.3778 60.1331 98.1289 62.3636 98.6317L69.8995 93.2345L67.9011 90.6909C67.9011 90.6909 67.2092 90.4206 67.0357 90.6909C67.0357 90.6909 63.3252 84.2922 62.9405 83.8291C62.5559 83.3661 62.6311 82.4421 62.6311 82.4421C62.6311 82.4421 62.0542 81.8261 62.2465 81.2478C62.4388 80.6696 61.1323 78.6644 61.1323 78.6644L62.3239 77.5477L55.6638 78.742Z" fill="black"/>
<path d="M53.5943 74.2331L53.0174 74.694L52.3254 80.9398C52.3254 80.9398 52.7101 83.7139 52.6327 84.1392C52.5554 84.5645 54.211 88.3778 54.211 88.3778C54.211 88.3778 59.6712 98.1289 61.9017 98.6317L69.4397 93.2345L67.4392 90.6909C67.4392 90.6909 66.7473 90.4206 66.5738 90.6909C66.5738 90.6909 62.8633 84.2922 62.4786 83.8291C62.094 83.3661 62.1713 82.4421 62.1713 82.4421C62.1713 82.4421 61.5944 81.8261 61.7867 81.2478C61.979 80.6695 60.6704 78.6644 60.6704 78.6644L61.8619 77.5477L53.5943 74.2331Z" fill="white"/>
<path opacity="0.1" d="M89.3969 98.7009C89.815 99.21 89.5516 101.496 89.5516 101.496L88.3977 103.411C88.3977 103.411 88.4667 104.647 88.4709 106.313L86.531 106.92C86.3556 106.975 86.1698 106.987 85.9889 106.956C85.808 106.924 85.6372 106.849 85.491 106.738C85.3447 106.626 85.2271 106.482 85.148 106.315C85.0689 106.149 85.0306 105.967 85.0363 105.783L85.3708 94.9693L89.8965 96.7041C89.5119 96.9723 89.9342 97.6302 89.9342 97.6302C89.9342 97.6302 88.9747 98.1917 89.3969 98.7009Z" fill="black"/>
<path d="M89.6288 98.4683C90.0469 98.9775 89.7835 101.265 89.7835 101.265L88.6296 103.18C88.6296 103.18 88.6986 104.415 88.7049 106.082L86.7294 106.7C86.5577 106.754 86.3758 106.765 86.1987 106.734C86.0216 106.703 85.8546 106.63 85.7114 106.521C85.5683 106.412 85.4532 106.27 85.3757 106.107C85.2983 105.945 85.2607 105.766 85.2661 105.586L85.6027 94.7389L90.1305 96.4737C89.7438 96.7419 90.1661 97.3977 90.1661 97.3977C90.1661 97.3977 89.2108 97.9613 89.6288 98.4683Z" fill="white"/>
<path d="M91.1278 93.3141C91.1278 93.3141 90.8205 95.2815 90.0512 95.3967C89.282 95.512 88.937 98.5794 88.1699 98.4704C87.4027 98.3615 87.9107 95.6188 87.9378 95.0867C87.965 94.5545 87.1017 92.3503 87.7476 91.8496C88.3935 91.3488 90.438 91.8496 90.438 91.8496L91.1278 93.3141Z" fill="#CF6F80"/>
<path opacity="0.1" d="M92.7646 78.1637L94.2153 75.2304C94.2153 75.2304 94.7923 77.466 94.7923 78.6603C94.7923 79.8545 95.5992 79.9719 95.5992 79.9719C95.5992 79.9719 96.4834 81.0195 96.0172 81.7821C95.5511 82.5448 95.3629 84.443 95.3629 84.443C95.3629 84.443 95.5155 88.0656 94.8236 88.5664C94.1317 89.0671 93.9875 90.2635 93.9875 90.2635C93.9875 90.2635 92.7165 92.5368 92.7562 93.0774C92.7959 93.6179 90.9877 97.2782 90.9877 97.2782C90.9877 97.2782 91.8719 92.7295 86.7191 90.7642C86.7191 90.7642 86.6793 89.2201 87.064 88.7969C87.4486 88.3736 88.0486 88.1809 87.6723 86.0417C87.296 83.9025 87.5636 81.3463 87.5636 80.833C87.5636 80.3197 88.7175 77.1182 88.7175 77.1182L92.7646 78.1637Z" fill="black"/>
<path d="M93.3918 74.8114L94.6586 75.2304C94.6586 75.2304 95.2376 77.466 95.2376 78.6602C95.2376 79.8545 96.0445 79.9718 96.0445 79.9718C96.0445 79.9718 96.9288 81.0194 96.4626 81.7821C95.9964 82.5448 95.8104 84.443 95.8104 84.443C95.8104 84.443 95.963 88.0656 95.2711 88.5664C94.5791 89.0671 94.4244 90.2635 94.4244 90.2635C94.4244 90.2635 93.1556 92.5368 93.1953 93.0773C93.235 93.6179 91.4247 97.2782 91.4247 97.2782C91.4247 97.2782 92.311 92.7295 87.156 90.7642C87.156 90.7642 87.1184 89.2201 87.503 88.7968C87.8877 88.3736 88.4876 88.1809 88.1114 86.0417C87.7351 83.9024 88.0027 81.3463 88.0027 80.833C88.0027 80.3196 89.1566 77.1182 89.1566 77.1182L93.3918 74.8114Z" fill="white"/>
<path opacity="0.1" d="M65.4114 150.84C65.4114 150.84 67.4307 149.568 68.7561 150.492C70.0814 151.416 65.4114 150.84 65.4114 150.84Z" fill="black"/>
<path opacity="0.1" d="M81.1022 146.907C81.1022 146.907 82.8895 146.677 84.3904 148.296C85.8913 149.916 81.1022 146.907 81.1022 146.907Z" fill="black"/>
<g opacity="0.1">
<path opacity="0.1" d="M83.7171 45.5812C83.46 45.8033 83.1297 45.9625 82.9583 46.2579C82.812 46.5114 82.8078 46.8236 82.6907 47.096C82.5736 47.3684 82.2329 47.5905 81.9967 47.4187C81.9423 45.533 81.0142 43.7625 79.8749 42.254C79.5564 41.7987 79.1692 41.3958 78.7273 41.0597C78.2799 40.7226 77.723 40.5649 77.1657 40.6176C76.5386 40.7035 75.9867 41.131 75.3533 41.1833C74.5172 41.2546 73.7667 40.6742 72.9368 40.6449C72.5996 40.6482 72.2669 40.7238 71.9612 40.8666C71.6555 41.0093 71.3837 41.2159 71.1641 41.4725C70.7277 41.9884 70.4038 42.59 70.213 43.2387C69.8845 44.2232 69.7055 45.2516 69.682 46.2893C69.6695 46.8739 69.6151 47.603 69.0758 47.8209C69.0884 47.9757 69.0884 48.1313 69.0758 48.2861C69.6193 48.0766 69.6737 47.339 69.6862 46.7524C69.7095 45.7146 69.8885 44.6862 70.2172 43.7018C70.408 43.0524 70.7319 42.4501 71.1683 41.9334C71.3883 41.6775 71.6602 41.4715 71.9659 41.3292C72.2716 41.1869 72.604 41.1114 72.941 41.1079C73.7772 41.1372 74.5297 41.7155 75.3575 41.6464C75.9846 41.594 76.5407 41.1645 77.1699 41.0807C77.7272 41.028 78.284 41.1856 78.7315 41.5228C79.1734 41.8589 79.5606 42.2618 79.8791 42.717C81.0184 44.2235 81.9465 45.9897 82.0009 47.8796C82.2371 48.0535 82.5778 47.8272 82.6949 47.559C82.8119 47.2909 82.8161 46.9766 82.9625 46.721C83.1339 46.4255 83.4642 46.2684 83.7213 46.0463C84.3735 45.4827 84.5365 44.5336 84.5115 43.6724C84.5115 43.6452 84.5115 43.618 84.5115 43.5928C84.4717 44.3387 84.2732 45.0993 83.7171 45.5812Z" fill="black"/>
<path opacity="0.1" d="M68.2857 45.4324C67.8049 44.9023 67.1485 44.5482 66.7074 43.9867C66.336 43.4896 66.1239 42.8913 66.0991 42.2707C66.0333 43.0462 66.2494 43.8193 66.7074 44.4477C67.1485 45.0113 67.8049 45.3654 68.2857 45.8954C68.7473 46.4139 69.0245 47.0712 69.0738 47.7644C69.1058 47.3425 69.0525 46.9185 68.9171 46.5178C68.7816 46.1171 68.5669 45.7479 68.2857 45.4324V45.4324Z" fill="black"/>
<path opacity="0.1" d="M84.9191 39.107C84.7958 39.6203 84.5763 40.1085 84.476 40.626C84.4165 40.9718 84.3948 41.3231 84.4112 41.6736C84.4182 41.4739 84.4398 41.275 84.476 41.0786C84.5763 40.559 84.7958 40.0729 84.9191 39.5595C84.991 39.2764 85.0143 38.9831 84.9881 38.6921C84.9751 38.8319 84.9521 38.9706 84.9191 39.107V39.107Z" fill="black"/>
</g>
<path opacity="0.1" d="M27.7461 159.359C38.9957 159.359 48.1152 157.891 48.1152 156.08C48.1152 154.269 38.9957 152.801 27.7461 152.801C16.4966 152.801 7.37708 154.269 7.37708 156.08C7.37708 157.891 16.4966 159.359 27.7461 159.359Z" fill="#6C63FF"/>
<path d="M28.4026 93.2659H27.0919V122.844H28.4026V93.2659Z" fill="#535461"/>
<path d="M36.6387 122.754L36.5572 124.086L36.4402 125.972L36.3921 126.756L36.2771 128.641L36.2269 129.425L36.1099 131.311L34.7887 152.696C34.7313 153.616 34.3262 154.48 33.6559 155.111C32.9856 155.743 32.1005 156.094 31.1807 156.095H24.3115C23.3919 156.094 22.507 155.743 21.8371 155.111C21.1671 154.48 20.7625 153.616 20.7056 152.696L19.3907 131.296L19.2736 129.41L19.2255 128.627L19.1085 126.741L19.0604 125.957L18.9433 124.072L18.8597 122.739C18.8452 122.483 18.8831 122.226 18.9711 121.985C19.0591 121.743 19.1954 121.523 19.3716 121.336C19.5478 121.15 19.7601 121.001 19.9956 120.9C20.2311 120.798 20.4848 120.746 20.7411 120.747H34.7908C35.0461 120.749 35.2983 120.803 35.5318 120.907C35.7652 121.011 35.975 121.161 36.1482 121.349C36.3213 121.537 36.4542 121.759 36.5386 122.001C36.6229 122.242 36.657 122.499 36.6387 122.754V122.754Z" fill="#3F3D56"/>
<path d="M36.5573 124.086L36.4403 125.966H19.0521L18.9351 124.086H36.5573Z" fill="#9D9CB5"/>
<path d="M36.3922 126.749L36.2772 128.631H19.2173L19.1002 126.749H36.3922Z" fill="#9D9CB5"/>
<path d="M36.2269 129.417L36.112 131.296H19.3823L19.2653 129.417H36.2269Z" fill="#9D9CB5"/>
<path d="M16.9345 104.352C24.5666 109.887 27.7524 118.545 27.7524 118.545C27.7524 118.545 18.5545 118.228 10.9203 112.693C3.2861 107.157 0.106567 98.5018 0.106567 98.5018C0.106567 98.5018 9.30024 98.8161 16.9345 104.352Z" fill="#6C63FF"/>
<path d="M0.100342 98.5018C0.100342 98.5018 9.64939 103.813 12.7119 108.211C15.7743 112.609 27.7524 118.545 27.7524 118.545" stroke="#535461" stroke-width="2" stroke-miterlimit="10"/>
<path d="M21.8616 93.201C26.0153 96.2118 27.7525 100.924 27.7525 100.924C27.7525 100.924 22.7459 100.752 18.5901 97.7413C14.4344 94.7305 12.7014 90.0163 12.7014 90.0163C12.7014 90.0163 17.7059 90.1881 21.8616 93.201Z" fill="#6C63FF"/>
<path d="M12.7014 90.0163C12.7014 90.0163 17.8982 92.9076 19.5643 95.3004C21.2303 97.6931 27.7525 100.924 27.7525 100.924" stroke="#535461" stroke-width="2" stroke-miterlimit="10"/>
<path d="M33.7833 100.685C29.0109 105.942 28.0012 112.812 28.0012 112.812C28.0012 112.812 34.7303 111.157 39.4985 105.898C44.2668 100.639 45.2806 93.7708 45.2806 93.7708C45.2806 93.7708 38.5558 95.4281 33.7833 100.685Z" fill="#6C63FF"/>
<path d="M45.2848 93.7729C45.2848 93.7729 39.0679 99.1618 37.4876 102.875C35.9072 106.587 28.0012 112.812 28.0012 112.812" stroke="#535461" stroke-width="2" stroke-miterlimit="10"/>
<path d="M208.973 98.835C208.973 98.835 205.522 81.6249 206.843 79.4836C206.843 79.4836 206.891 77.4932 206.812 74.9559C206.812 74.8595 206.812 74.7632 206.812 74.6647C207.044 74.82 207.286 74.96 207.537 75.0837C208.754 75.7105 210.152 75.8914 211.488 75.595L210.443 74.4279C210.192 74.1493 209.931 73.8476 209.876 73.4788C209.822 73.11 209.972 72.7811 210.102 72.4521C211.095 69.9379 211.147 66.7762 209.235 64.857C207.619 63.2437 207.226 61.1611 205.472 59.6882C204.19 58.6091 203.486 57.0273 202.821 55.4978C202.259 54.205 201.692 52.9018 201.37 51.5315C201.12 50.4609 201.019 49.3525 200.674 48.307C200.329 47.2615 199.683 46.2453 198.674 45.7781C198.314 45.6126 197.915 45.5183 197.587 45.2983C197.156 45.0071 196.897 44.5336 196.585 44.1187C195.003 42.0235 189.704 43.2576 187.195 44.1082C186.513 44.3224 185.882 44.6731 185.339 45.1391L185.362 45.1014C185.381 45.0699 185.404 45.0385 185.425 45.0071C185.15 45.2296 184.913 45.4949 184.722 45.7928C184.356 46.3731 184.204 47.0499 183.899 47.6785C183.531 48.4223 181.484 50.4986 182.364 51.3346C182.426 51.3907 182.497 51.4361 182.573 51.4687C182.904 51.6065 183.267 51.643 183.618 51.5734L183.581 51.6635C183.28 52.4011 183.126 53.1904 183.127 53.9871C183.127 57.4295 185.96 60.2203 189.457 60.2203C190.115 60.221 190.768 60.1199 191.395 59.9207C191.41 60.0004 191.422 60.08 191.437 60.1596C191.437 60.191 191.447 60.2224 191.451 60.2539L191.341 60.4089C191.335 60.3994 191.329 60.3902 191.322 60.3817L188.04 64.9786C187.538 65.3326 184.649 67.4279 184.486 68.9993C184.315 70.7194 184.143 72.7329 184.143 72.7329L184.12 73.1645C183.977 73.2846 183.809 73.3721 183.629 73.421C183.448 73.4698 183.259 73.4788 183.075 73.4474C182.051 73.2798 182.051 77.2187 182.051 77.2187C182.051 77.2187 181.369 77.8473 180.901 77.3025C180.433 76.7578 179.195 78.6037 179.195 78.6037L171.44 78.9389L171.262 78.9494L170.844 77.6524C170.799 77.5156 170.702 77.4022 170.574 77.3366C170.446 77.2711 170.297 77.2589 170.16 77.3025C170.128 77.3132 170.097 77.3265 170.066 77.3424L170.037 77.3591L169.983 77.3968L169.955 77.422C169.941 77.4356 169.927 77.4503 169.914 77.466L169.889 77.4953L169.876 77.5079C169.828 77.5748 169.796 77.6521 169.783 77.7336C169.77 77.8151 169.776 77.8985 169.801 77.9772L170.16 79.0898C168.664 79.3915 167.133 80.2421 168.381 82.5846L162.056 81.4133L164.102 83.1356L174.667 85.3209C174.527 85.5723 174.619 85.9369 175.056 86.4502C176.938 88.6648 180.366 89.2662 181.745 89.4212C182.11 90.2381 182.565 91.0112 183.102 91.7259L182.983 93.9322C182.983 93.9322 179.49 110.748 178.85 111.601C179.173 111.234 179.469 110.844 179.734 110.434C178.721 113.889 177.303 118.618 176.931 119.326C176.333 120.457 175.779 125.035 176.461 125.329C176.67 125.419 177.268 125.375 178.121 125.31V125.689L178.083 140.06C178.083 140.06 178.254 148.875 177.784 149.715C177.314 150.555 177.188 152.317 177.188 152.317C177.188 152.317 175.307 155.793 173.817 157.191C173.806 157.201 173.795 157.211 173.783 157.22L173.737 156.893C173.737 156.893 171.946 159.16 167.982 159.032C167.982 159.032 165.597 160.587 169.134 160.671C172.671 160.755 177.188 160.545 177.188 160.545C177.188 160.545 180.343 155.726 182.985 156.355V160.007H183.794V156.296C184.169 156.048 184.49 155.727 184.738 155.351C184.986 154.976 185.154 154.554 185.234 154.111C185.304 153.654 185.253 153.187 185.087 152.756C184.922 152.325 184.647 151.945 184.29 151.653C184.129 151.508 184 151.331 183.912 151.133C183.823 150.935 183.776 150.722 183.773 150.505L183.744 150.53C183.744 150.457 183.725 150.381 183.717 150.304C183.485 148.418 183.194 144.527 184.221 141.648C185.627 137.701 186.054 132.203 185.03 128.93C184.699 127.884 184.428 126.82 184.216 125.744C184.191 125.607 184.168 125.478 184.147 125.356C184.848 125.451 185.541 125.591 186.223 125.775C188.596 126.431 193.786 126.552 198.218 126.517C198.228 126.638 198.241 126.766 198.256 126.894C198.335 127.782 198.5 128.661 198.749 129.517C199.305 131.193 199.56 138.583 199.56 138.583C199.56 138.583 200.277 144.659 199.886 147.131C199.677 148.506 199.468 149.887 199.349 151.274V151.301C199.349 151.301 198.174 154.653 197.315 156.474C197.294 156.52 197.271 156.566 197.25 156.61C197.021 156.631 196.796 156.681 196.579 156.759C196.579 156.759 195.427 159.064 194.28 159.445C193.132 159.826 193.512 161.081 196.111 160.62C198.709 160.159 202.633 159.782 202.633 159.782L202.802 157.432L203.601 156.43L203.392 158.775L204.243 158.607L204.13 155.755L205.436 154.117C205.436 154.117 207.014 152.709 204.669 149.939V150C204.644 149.96 204.621 149.918 204.594 149.878V149.866C204.205 149.262 203.896 148.137 204.462 146.14C205.486 142.533 206.082 139.258 206.082 139.258C206.082 139.258 208.369 130.485 205.62 126.335H205.741C205.46 125.75 205.261 125.13 205.15 124.491C205.136 124.415 205.123 124.338 205.112 124.258C207.146 124.141 209.143 123.772 210.771 122.976C210.765 122.968 209.784 102.15 208.973 98.835ZM183.15 84.3152V84.3571L182.732 84.378L183.15 84.3152ZM181.716 84.5142C181.647 84.5295 181.583 84.5603 181.528 84.6043C181.348 84.8592 181.235 85.1554 181.2 85.4655L180.548 85.3188C180.548 85.3188 180.09 85.2203 179.431 85.1093L179.12 84.795C179.977 84.7238 180.868 84.619 181.716 84.5142V84.5142Z" fill="url(#paint1_linear)"/>
<path d="M203.296 155.785L203.047 158.754L203.881 158.586L203.756 155.366L203.296 155.785Z" fill="#1D2366"/>
<path d="M184.267 141.688C183.261 144.559 183.545 148.433 183.771 150.314C183.855 151.01 183.932 151.433 183.932 151.433C183.932 151.433 182.429 154.865 182.304 154.995C182.178 155.125 177.88 157.754 177.88 157.754L174.876 159.512C174.876 159.512 171.829 158.173 173.29 157.712C173.588 157.592 173.857 157.408 174.078 157.174C175.541 155.781 177.379 152.317 177.379 152.317C177.379 152.317 177.504 150.559 177.964 149.723C178.424 148.887 178.257 140.102 178.257 140.102L178.292 125.781V123.915L184.009 123.956C184.046 124.59 184.128 125.22 184.256 125.842C184.461 126.915 184.727 127.976 185.053 129.018C186.06 132.285 185.642 137.755 184.267 141.688Z" fill="#FFB0B1"/>
<path opacity="0.1" d="M183.932 151.433C183.932 151.433 182.429 154.865 182.304 154.995C182.178 155.125 177.88 157.754 177.88 157.754L174.876 159.512C174.876 159.512 171.829 158.173 173.29 157.712C173.588 157.592 173.857 157.408 174.078 157.174L174.207 158.089L175.209 158.048L183.78 150.318C183.855 151.01 183.932 151.433 183.932 151.433Z" fill="black"/>
<path d="M183.828 150.513L175.209 158.295L174.207 158.337L173.998 156.87C173.998 156.87 172.247 159.129 168.354 159.003C168.354 159.003 166.017 160.551 169.481 160.635C172.945 160.719 177.368 160.509 177.368 160.509C177.368 160.509 180.458 155.69 183.044 156.319V159.958H183.838V156.285C184.207 156.036 184.523 155.715 184.765 155.34C185.007 154.966 185.171 154.546 185.247 154.106C185.316 153.654 185.267 153.191 185.106 152.762C184.944 152.333 184.675 151.954 184.325 151.659C184.169 151.512 184.044 151.335 183.958 151.138C183.873 150.941 183.828 150.728 183.828 150.513V150.513Z" fill="#1D2366"/>
<path d="M204.09 146.164C203.534 148.154 203.837 149.275 204.218 149.876V149.889C204.705 150.631 205.045 151.462 205.217 152.334L205.25 152.522L201.329 158.253L199.201 159.091C199.201 159.091 195.779 157.92 196.404 157.584C196.56 157.503 196.805 157.067 197.085 156.466C197.921 154.653 199.075 151.309 199.075 151.309V151.282C199.196 149.901 199.389 148.525 199.602 147.155C199.984 144.689 199.282 138.635 199.282 138.635C199.282 138.635 199.031 131.275 198.488 129.601C198.242 128.75 198.079 127.877 198.001 126.995C197.888 125.947 197.863 125.084 197.863 125.084C197.863 125.084 200.116 121.941 204.247 125.335C204.577 125.606 204.868 125.922 205.11 126.274C207.964 130.343 205.666 139.306 205.666 139.306C205.666 139.306 205.091 142.566 204.09 146.164Z" fill="#FFB0B1"/>
<path opacity="0.1" d="M205.256 152.522L201.335 158.253L199.207 159.091C199.207 159.091 195.785 157.92 196.41 157.584C196.567 157.503 196.811 157.067 197.091 156.466C198.54 156.453 199.29 157.836 199.29 157.836L201.126 157.543C201.126 157.543 203.546 152.774 204.09 152.483C204.633 152.191 204.174 150.306 204.174 150.306V149.826C204.188 149.843 204.201 149.862 204.217 149.878V149.891C204.705 150.633 205.045 151.464 205.217 152.336L205.256 152.522Z" fill="black"/>
<path d="M199.416 157.96C199.416 157.96 198.371 156.036 196.368 156.746C196.368 156.746 195.241 159.051 194.114 159.424C192.988 159.797 193.364 161.054 195.91 160.595C198.456 160.136 202.294 159.757 202.294 159.757L202.462 157.413L205.05 154.109C205.05 154.109 206.592 152.707 204.297 149.947V150.427C204.297 150.427 204.757 152.313 204.213 152.604C203.67 152.895 201.257 157.666 201.257 157.666L199.416 157.96Z" fill="#1D2366"/>
<path opacity="0.1" d="M184.016 123.952C184.052 124.586 184.134 125.216 184.262 125.838C181.909 125.492 179.724 125.664 178.292 125.777V123.91L184.016 123.952Z" fill="black"/>
<path opacity="0.1" d="M205.342 126.795C205.342 126.795 201.997 126.959 198.009 126.992C197.896 125.945 197.871 125.082 197.871 125.082C197.871 125.082 200.124 121.939 204.255 125.333C204.585 125.604 204.876 125.92 205.118 126.272C205.183 126.45 205.258 126.625 205.342 126.795V126.795Z" fill="black"/>
<path d="M205.342 126.418C205.342 126.418 190.692 127.129 186.227 125.874C181.762 124.619 177.337 125.706 176.67 125.415C176.003 125.123 176.545 120.562 177.13 119.433C177.715 118.304 180.926 106.883 180.926 106.883L184.016 90.737L187.27 89.8381L187.5 89.7732L193.172 88.206L197.328 87.0557C197.328 87.0557 205.591 119.391 204.882 121.775C204.625 122.688 204.583 123.649 204.761 124.581C204.869 125.217 205.065 125.836 205.342 126.418V126.418Z" fill="#1D2366"/>
<path d="M173.246 79.6953C173.246 79.6953 170.319 82.8381 172.535 84.5897C174.751 86.3412 176.208 84.7573 176.208 84.7573L173.246 79.6953Z" fill="#C7DAF5"/>
<path opacity="0.1" d="M173.246 79.6953C173.246 79.6953 170.319 82.8381 172.535 84.5897C174.751 86.3412 176.208 84.7573 176.208 84.7573L173.246 79.6953Z" fill="black"/>
<path d="M196.891 59.0324C196.891 59.0324 196.548 59.3592 196.031 59.8411C195.296 60.5304 194.206 61.5382 193.241 62.3826C191.903 63.5496 190.799 64.4066 191.194 63.6753C191.589 62.9441 191.514 61.6702 191.318 60.4781C191.303 60.3984 191.29 60.3188 191.276 60.2413C191.113 59.3657 190.897 58.5009 190.63 57.6516C190.63 57.6516 192.791 54.8524 193.987 53.7483C194.432 53.3292 194.744 53.1574 194.763 53.4487C194.783 53.8405 195.076 54.7058 195.44 55.6235C195.45 55.6528 195.461 55.68 195.473 55.7094C195.716 56.3379 195.99 56.9833 196.23 57.5406C196.598 58.3954 196.891 59.0324 196.891 59.0324Z" fill="#FFB0B1"/>
<path opacity="0.1" d="M195.473 55.7094C195.27 56.8044 194.777 57.8247 194.046 58.6635C193.315 59.5024 192.373 60.1291 191.318 60.4781C191.151 59.5216 190.922 58.5774 190.63 57.6516C190.63 57.6516 194.7 52.3822 194.763 53.4487C194.777 53.853 195.095 54.7498 195.473 55.7094Z" fill="black"/>
<path opacity="0.1" d="M190.912 61.886L191.439 61.1422C191.439 61.1422 191.788 63.2752 193.071 62.3344C194.355 61.3937 194.418 69.4141 194.418 69.4141L193.04 90.0581L183.085 89.461L183.368 79.4857L184.494 74.4573L187.281 67.1471L188.939 64.7313L190.912 61.886Z" fill="black"/>
<path d="M194.418 69.5419L193.163 88.2081L193.032 90.186L187.482 89.8528L187.273 89.8403L183.092 89.5888L183.374 79.6115L184.501 74.583L187.287 67.2728L188.945 64.857L190.918 62.0013L191.445 61.2596C191.445 61.2596 191.794 63.3925 193.078 62.4518L193.105 62.4329C194.359 61.6367 194.418 69.5419 194.418 69.5419Z" fill="#1D2366"/>
<path d="M184.641 72.8356C184.641 72.8356 184.141 73.8832 183.138 73.7135C182.134 73.5438 182.136 77.4848 182.136 77.4848C182.136 77.4848 181.47 78.1134 181.01 77.5686C180.55 77.0239 179.337 78.8656 179.337 78.8656L171.741 79.2008C171.741 79.2008 175.121 80.7492 174.458 85.434C174.458 85.434 185.935 84.7217 186.311 83.6343C186.687 82.5468 184.641 72.8356 184.641 72.8356Z" fill="white"/>
<path opacity="0.03" d="M184.641 72.8356C184.641 72.8356 184.141 73.8832 183.138 73.7135C182.134 73.5438 182.136 77.4848 182.136 77.4848C182.136 77.4848 181.47 78.1134 181.01 77.5686C180.55 77.0239 179.337 78.8656 179.337 78.8656L171.741 79.2008C171.741 79.2008 175.121 80.7492 174.458 85.434C174.458 85.434 185.935 84.7217 186.311 83.6343C186.687 82.5468 184.641 72.8356 184.641 72.8356Z" fill="black"/>
<path d="M162.564 81.6627L164.566 83.3765L181.052 86.8483L179.007 84.7573L162.564 81.6627Z" fill="white"/>
<path d="M190.943 62.546C190.669 62.9651 189.885 65.1106 189.231 66.9837C188.686 68.5446 188.23 69.9169 188.23 69.9169C188.23 69.9169 187.166 76.8605 186.622 78.1155C186.079 79.3705 186.374 84.2649 186.374 84.2649L184.348 96.3521C184.348 96.3521 183.43 102.585 182.013 106.309C180.614 109.973 179.057 111.691 179.009 111.746C179.636 110.895 183.054 94.1459 183.054 94.1459L184.183 73.022C184.183 73.022 184.348 71.0148 184.515 69.2989C184.682 67.5829 188.069 65.2405 188.069 65.2405L191.334 60.587C191.662 61.027 191.443 61.7938 190.943 62.546Z" fill="white"/>
<path d="M182.429 89.6936C182.429 89.6936 177.621 89.4841 175.292 86.6807C172.963 83.8773 180.675 85.5618 180.675 85.5618L182.68 86.0228L182.429 89.6936Z" fill="#FFB0B1"/>
<path opacity="0.1" d="M204.882 121.777C204.625 122.69 204.583 123.651 204.761 124.583C199.516 124.956 193.905 123.535 193.905 123.535C192.86 124.499 190.107 125.92 190.107 125.92L188.606 107.272C187.647 104.758 187.271 91.5856 187.271 91.5856C187.271 91.5856 187.356 90.8962 187.48 89.8633C187.48 89.8382 187.48 89.8109 187.49 89.7858C187.864 86.9007 188.606 81.4846 188.97 80.7534C189.472 79.7477 187.427 77.0721 187.427 77.0721L188.358 69.1208L188.47 68.1612C190.431 67.2833 191.934 64.4799 191.934 64.4799L193.088 62.4538C194.342 61.6472 194.407 69.5524 194.407 69.5524L193.153 88.2186L197.309 87.0683C197.309 87.0683 205.591 119.393 204.882 121.777Z" fill="black"/>
<path d="M210.265 123.066C204.548 125.911 194.156 123.276 194.156 123.276C193.111 124.239 190.358 125.66 190.358 125.66L188.855 107.013C187.898 104.498 187.521 91.3258 187.521 91.3258C187.521 91.3258 188.73 81.4972 189.231 80.4936C189.378 80.2002 189.306 79.7644 189.133 79.2951C188.28 77.0613 187.966 74.6568 188.217 72.2783L188.619 68.861L188.73 67.9035C190.692 67.0235 192.195 64.2201 192.195 64.2201L193.241 62.3847L195.164 59.003L196.075 57.4023L196.23 57.5427L197.411 58.6154C197.411 58.6154 197.913 59.0345 198.665 59.663C200.302 61.0459 203.13 63.4805 204.59 64.9702C205.873 66.2818 206.279 71.3836 206.396 75.2241C206.473 77.753 206.427 79.7351 206.427 79.7351C205.133 81.8701 208.517 99.011 208.517 99.011C209.306 102.323 210.265 123.066 210.265 123.066Z" fill="white"/>
<path opacity="0.03" d="M199.29 64.1782C199.29 64.1782 195.367 71.6644 195.822 74.5096C196.278 77.3549 197.574 80.5753 196.949 81.3274C196.734 81.6124 196.457 81.8437 196.138 82.0033C195.819 82.1629 195.468 82.2463 195.112 82.2472C194.485 82.2891 192.812 83.4604 192.812 83.5861C192.812 83.7118 191.267 83.7118 189.886 84.2984C188.504 84.8851 186.464 85.2182 186.464 85.2182C186.464 85.2182 182.492 85.0925 182.122 85.4697C181.752 85.8468 181.371 88.1033 182.164 89.9031C182.956 91.7029 183.836 93.0459 184.501 93.2911C185.165 93.5362 189.384 92.1199 192.806 91.7846C196.228 91.4494 199.943 88.7319 199.943 88.7319C199.943 88.7319 204.034 87.2653 204.751 84.7992C205.468 82.3331 203.875 68.7793 203.875 68.7793C203.875 68.7793 202.671 62.4622 199.29 64.1782Z" fill="black"/>
<path opacity="0.03" d="M198.789 63.5496C198.789 63.5496 194.865 71.0379 195.325 73.8811C195.785 76.7243 197.077 79.9467 196.449 80.701C196.235 80.9863 195.958 81.2178 195.64 81.3775C195.321 81.5371 194.97 81.6204 194.614 81.6208C193.987 81.6627 192.315 82.8339 192.315 82.9596C192.315 83.0853 190.77 83.0853 189.388 83.6699C188.006 84.2544 185.966 84.5897 185.966 84.5897C185.966 84.5897 181.994 84.464 181.626 84.8411C181.258 85.2182 180.874 87.4769 181.668 89.2746C182.462 91.0722 183.34 92.4174 184.005 92.6625C184.67 92.9076 188.888 91.4913 192.31 91.1581C195.732 90.825 199.447 88.1033 199.447 88.1033C199.447 88.1033 203.536 86.6367 204.245 84.1727C204.953 81.7088 203.369 68.1507 203.369 68.1507C203.369 68.1507 202.169 61.8358 198.789 63.5496Z" fill="black"/>
<path d="M199.167 63.8011C199.167 63.8011 195.243 71.2893 195.703 74.1325C196.163 76.9757 197.455 80.1981 196.83 80.9503C196.616 81.2363 196.339 81.4684 196.02 81.6284C195.701 81.7884 195.349 81.8719 194.993 81.8722C194.365 81.9141 192.693 83.0853 192.693 83.2089C192.693 83.3326 191.15 83.3347 189.766 83.9213C188.383 84.508 186.344 84.8411 186.344 84.8411C186.344 84.8411 182.373 84.7154 182.003 85.0925C181.633 85.4697 181.252 87.7283 182.044 89.526C182.837 91.3237 183.717 92.6688 184.382 92.9139C185.046 93.1591 189.265 91.7427 192.687 91.4075C196.109 91.0722 199.823 88.3548 199.823 88.3548C199.823 88.3548 203.914 86.8881 204.631 84.4221C205.348 81.956 203.766 68.4021 203.766 68.4021C203.766 68.4021 202.545 62.0956 199.167 63.8011Z" fill="white"/>
<path opacity="0.1" d="M199.081 83.8857C199.081 83.8857 195.946 83.2571 197.037 84.3047C198.128 85.3523 198.122 86.27 199.458 86.2281C200.793 86.1862 199.081 83.8857 199.081 83.8857Z" fill="black"/>
<path opacity="0.1" d="M204.381 106.426C204.381 106.426 202.963 107.388 205.675 109.604C208.386 111.821 204.381 106.426 204.381 106.426Z" fill="black"/>
<path opacity="0.1" d="M201.676 114.331C201.676 114.457 201.174 118.941 203.051 120.061C204.928 121.182 201.676 114.331 201.676 114.331Z" fill="black"/>
<path d="M171.87 79.1903C170.357 79.2427 167.087 79.7058 168.783 82.8758C170.282 85.6813 172.801 83.8061 174.218 82.3834C173.872 81.0571 173.032 79.9142 171.87 79.1903V79.1903Z" fill="#FFB0B1"/>
<path d="M174.237 82.3583L174.299 82.2934L174.237 82.3583Z" fill="#FFB0B1"/>
<path opacity="0.1" d="M198.665 59.7908C197.06 60.8908 195.714 61.819 195.45 62.0118C194.731 62.546 193.36 65.6826 192.476 67.2833C191.771 68.5718 189.482 68.9029 188.619 68.9846L188.73 68.0271C190.692 67.1471 192.195 64.3437 192.195 64.3437L196.075 57.5259L197.411 58.7432C197.411 58.7432 197.913 59.1623 198.665 59.7908Z" fill="black"/>
<path d="M198.665 59.6651C197.06 60.7651 195.714 61.6933 195.45 61.8881C194.731 62.4203 193.36 65.5568 192.476 67.1576C191.771 68.4461 189.482 68.7772 188.619 68.8589L188.73 67.9014C190.692 67.0214 192.195 64.218 192.195 64.218L196.075 57.4002L197.411 58.6133C197.411 58.6133 197.913 59.0282 198.665 59.6651Z" fill="#DCE7FF"/>
<path d="M195.576 54.3265C195.577 55.5843 195.196 56.8126 194.485 57.8486C193.644 59.0735 192.394 59.9559 190.96 60.3357C189.526 60.7155 188.004 60.5676 186.669 59.9187C185.335 59.2698 184.277 58.1629 183.687 56.799C183.097 55.435 183.014 53.9044 183.454 52.4847C183.894 51.065 184.827 49.8504 186.084 49.0612C187.341 48.2721 188.839 47.9606 190.305 48.1835C191.771 48.4063 193.109 49.1486 194.077 50.2757C195.044 51.4028 195.576 52.84 195.576 54.3265V54.3265Z" fill="#FFB0B1"/>
<path opacity="0.1" d="M206.396 75.2262C205.547 74.7028 204.855 73.9584 204.395 73.0723C204.046 72.3809 203.814 71.5827 203.218 71.0924C202.681 70.6524 201.964 70.5455 201.295 70.3486C199.096 69.697 197.252 67.6856 197.183 65.3892C197.15 64.3081 197.486 63.2291 197.334 62.1584C197.247 61.5525 197.007 60.979 196.636 60.4927C196.451 60.2602 196.249 60.0423 196.031 59.8411C195.739 59.5646 195.431 59.2964 195.164 59.003C194.995 58.8214 194.848 58.6211 194.725 58.4059C194.625 58.2298 194.545 58.0437 194.484 57.8507C194.066 56.5684 194.447 55.0473 193.987 53.7504L193.962 53.6791C193.788 53.2182 193.435 52.7572 192.944 52.7216C192.453 52.686 192.032 53.0946 191.564 53.2769C190.584 53.6582 189.526 53.0087 188.709 52.3466C187.891 51.6845 186.969 50.9281 185.93 51.0748C185.243 51.1733 184.699 51.6426 184.066 51.8856C183.923 51.9411 183.775 51.9839 183.625 52.0134C184.161 50.6736 185.146 49.5626 186.41 48.8715C187.675 48.1804 189.14 47.9522 190.554 48.2261C191.968 48.5001 193.243 49.259 194.159 50.3727C195.076 51.4863 195.576 52.8851 195.576 54.3286C195.576 54.7646 195.531 55.1993 195.44 55.6256C195.45 55.6549 195.461 55.6821 195.473 55.7115C195.716 56.34 195.99 56.9854 196.23 57.5427L197.411 58.6154C197.411 58.6154 197.913 59.0345 198.665 59.663C200.302 61.0459 203.13 63.4805 204.59 64.9702C205.873 66.286 206.274 71.3857 206.396 75.2262Z" fill="black"/>
<path d="M183.993 48.0577C184.292 47.448 184.44 46.765 184.798 46.1867C185.322 45.3486 186.238 44.8122 187.179 44.4875C189.635 43.6389 194.825 42.4069 196.376 44.4875C196.682 44.9065 196.935 45.3716 197.357 45.6608C197.679 45.8808 198.068 45.9751 198.421 46.1406C199.41 46.6057 200.041 47.6198 200.377 48.6548C200.714 49.6899 200.814 50.8003 201.061 51.8668C201.377 53.2349 201.931 54.5319 202.482 55.8204C203.133 57.3415 203.822 58.9192 205.077 59.9941C206.789 61.4607 207.167 63.5371 208.756 65.1462C210.637 67.057 210.577 70.2103 209.607 72.7141C209.479 73.043 209.335 73.3866 209.385 73.7365C209.435 74.0864 209.694 74.4049 209.939 74.6836L210.967 75.8464C208.534 76.4351 205.781 75.1613 204.648 72.9257C204.299 72.2343 204.067 71.4381 203.469 70.9457C202.934 70.5057 202.215 70.401 201.548 70.204C199.349 69.5503 197.505 67.5368 197.436 65.2405C197.403 64.1614 197.739 63.0824 197.587 62.0138C197.502 61.4038 197.261 60.8263 196.886 60.3377C196.312 59.5855 195.444 59.0806 194.976 58.2425C194.184 56.8408 194.786 55.0201 194.215 53.5157C194.039 53.0548 193.688 52.5938 193.197 52.5582C192.706 52.5226 192.285 52.9311 191.815 53.1134C190.837 53.4947 189.779 52.8473 188.962 52.1831C188.144 51.519 187.222 50.7647 186.181 50.9135C185.494 51.0098 184.952 51.4792 184.319 51.7243C183.851 51.9045 182.902 52.0658 182.492 51.6698C181.626 50.8715 183.631 48.8036 183.993 48.0577Z" fill="#591D4B"/>
<path opacity="0.1" d="M205.229 72.2343C204.878 71.5428 204.648 70.7467 204.05 70.2564C203.515 69.8164 202.796 69.7095 202.127 69.5126C199.93 68.861 198.086 66.8475 198.015 64.5511C197.982 63.4721 198.318 62.391 198.168 61.3224C198.08 60.7163 197.839 60.1429 197.468 59.6567C196.891 58.9046 196.023 58.3996 195.557 57.5615C194.765 56.1619 195.367 54.3412 194.794 52.8348C194.62 52.3759 194.267 51.915 193.778 51.8773C193.289 51.8395 192.865 52.2523 192.396 52.4346C191.418 52.8159 190.358 52.1664 189.543 51.5043C188.728 50.8422 187.802 50.0859 186.763 50.2325C186.075 50.331 185.531 50.8003 184.9 51.0434C184.432 51.2236 183.481 51.387 183.071 50.991C182.21 50.1529 184.214 48.0891 184.574 47.3474C184.873 46.7356 185.021 46.0547 185.381 45.4764C185.4 45.445 185.421 45.4136 185.441 45.3821C185.172 45.6054 184.94 45.8699 184.754 46.1657C184.396 46.744 184.248 47.4229 183.949 48.0367C183.587 48.7784 181.583 50.8485 182.446 51.6803C182.864 52.0784 183.805 51.915 184.273 51.7348C184.9 51.4896 185.448 51.0203 186.135 50.9239C187.181 50.7752 188.1 51.5315 188.916 52.1936C189.731 52.8557 190.797 53.5052 191.771 53.1239C192.239 52.9416 192.649 52.531 193.151 52.5687C193.653 52.6064 193.987 53.0652 194.169 53.5262C194.74 55.0305 194.138 56.8513 194.93 58.253C195.398 59.0764 196.266 59.5918 196.84 60.3482C197.215 60.8368 197.456 61.4143 197.541 62.0243C197.693 63.0929 197.357 64.1719 197.39 65.2509C197.459 67.5557 199.303 69.5608 201.502 70.2145C202.165 70.4114 202.888 70.5162 203.423 70.9562C204.023 71.4486 204.259 72.2447 204.602 72.9361C205.735 75.1717 208.488 76.4456 210.922 75.8569L210.437 75.3079C208.327 75.3393 206.193 74.1367 205.229 72.2343Z" fill="black"/>
<path opacity="0.1" d="M190.818 62.6717C190.544 63.0908 189.76 65.2363 189.106 67.1094C188.493 66.8705 187.937 65.3473 187.937 65.3473L191.202 60.6918C191.537 61.1527 191.317 61.9175 190.818 62.6717Z" fill="black"/>
<path d="M190.943 62.546C190.669 62.9651 189.886 65.1106 189.231 66.9837C188.619 66.7469 188.063 65.2216 188.063 65.2216L191.328 60.5682C191.662 61.027 191.443 61.7939 190.943 62.546Z" fill="#DCE7FF"/>
<path d="M171.958 83.9507L170.148 78.2286C170.126 78.1616 170.118 78.0911 170.124 78.021C170.13 77.9509 170.15 77.8826 170.182 77.8201C170.214 77.7576 170.258 77.7021 170.312 77.6568C170.366 77.6115 170.428 77.5773 170.495 77.5561V77.5561C170.63 77.5139 170.775 77.5268 170.901 77.592C171.026 77.6571 171.12 77.7692 171.164 77.9039L172.974 83.6196L172.794 84.816L171.958 83.9507Z" fill="#BE8B87"/>
<path opacity="0.1" d="M170.319 77.7258C170.454 77.683 170.601 77.6956 170.726 77.7608C170.852 77.8259 170.947 77.9384 170.99 78.0736L172.801 83.7893L172.665 84.6861L172.796 84.8244L172.976 83.628L171.155 77.9123C171.112 77.7776 171.018 77.6655 170.892 77.6003C170.767 77.5352 170.621 77.5223 170.487 77.5645V77.5645C170.373 77.6013 170.275 77.6751 170.208 77.774C170.244 77.7549 170.281 77.7387 170.319 77.7258V77.7258Z" fill="white"/>
<path d="M171.958 84.9506L172.974 84.628L172.826 85.6085L172.794 85.8243L172.497 85.5142L171.958 84.9506Z" fill="#EFC8C4"/>
<path d="M172.498 88.5143C172.515 88.4919 172.537 88.4733 172.562 88.4598C172.577 88.4505 172.594 88.4455 172.611 88.4455C172.629 88.4455 172.646 88.4505 172.661 88.4598C172.675 88.477 172.687 88.496 172.696 88.5163C172.71 88.5395 172.729 88.5592 172.751 88.5741C172.774 88.5889 172.799 88.5986 172.826 88.6023L172.794 88.8118L172.498 88.5143Z" fill="#727A9C"/>
<path d="M170.137 80.261C170.137 80.261 173.768 80.24 172.913 81.7884C172.058 83.3367 170.723 83.5232 170.723 83.5232L170.137 80.261Z" fill="#FFB0B1"/>
<path d="M147.554 10.7735H147.398C141.16 10.7735 135.643 14.0819 132.47 18.9637C129.297 14.0819 123.78 10.7735 117.542 10.7735H117.386C112.704 10.8182 108.23 12.7129 104.934 16.0456C101.639 19.3784 99.7888 23.8801 99.7863 28.5723C99.7863 34.3991 102.332 42.6667 107.297 49.4699C116.756 62.4329 132.47 73.7742 132.47 73.7742C132.47 73.7742 148.184 62.435 157.641 49.4699C162.608 42.6667 165.152 34.3991 165.152 28.5723C165.149 23.8804 163.299 19.3791 160.004 16.0464C156.709 12.7136 152.235 10.8188 147.554 10.7735V10.7735ZM145.311 50.4672C144.601 50.4645 143.908 50.2465 143.323 49.8419C142.739 49.4374 142.29 48.8651 142.036 48.2002H138.306C138.061 48.1986 137.822 48.1203 137.623 47.976C137.424 47.8318 137.275 47.6289 137.196 47.3956L136.051 43.9364L132.426 56.6313C132.356 56.8757 132.208 57.0905 132.005 57.2435C131.802 57.3965 131.555 57.4794 131.301 57.4798H131.228C130.963 57.467 130.711 57.3635 130.513 57.1865C130.315 57.0096 130.184 56.7699 130.141 56.5076L126.406 33.9884L123.676 47.3139C123.613 47.567 123.468 47.7919 123.263 47.9525C123.058 48.1131 122.805 48.2003 122.545 48.2002H117.291C117.134 48.2068 116.977 48.1815 116.829 48.1257C116.682 48.0699 116.547 47.9848 116.433 47.8755C116.32 47.7662 116.229 47.6349 116.167 47.4896C116.105 47.3443 116.073 47.188 116.073 47.03C116.073 46.872 116.105 46.7157 116.167 46.5704C116.229 46.4251 116.32 46.2938 116.433 46.1845C116.547 46.0752 116.682 45.9901 116.829 45.9343C116.977 45.8785 117.134 45.8531 117.291 45.8598H121.625L125.492 27.9437C125.556 27.6788 125.709 27.4443 125.926 27.2802C126.143 27.116 126.41 27.0325 126.681 27.0439C126.953 27.0553 127.212 27.1608 127.415 27.3426C127.617 27.5243 127.75 27.7708 127.792 28.0401L131.607 51.0119L134.855 39.6538C134.923 39.4146 135.066 39.2037 135.263 39.0527C135.46 38.9016 135.7 38.8185 135.948 38.8157H135.971C136.217 38.8158 136.457 38.8936 136.655 39.0381C136.854 39.1826 137.003 39.3863 137.079 39.6203L139.151 45.8661H141.99C142.192 45.2515 142.559 44.7047 143.051 44.2862C143.544 43.8676 144.142 43.5935 144.78 43.4941C145.417 43.3947 146.07 43.4739 146.666 43.7229C147.262 43.972 147.778 44.3812 148.156 44.9054C148.534 45.4296 148.761 46.0484 148.811 46.6935C148.861 47.3386 148.731 47.9849 148.438 48.5612C148.144 49.1374 147.697 49.6211 147.147 49.959C146.596 50.2968 145.963 50.4756 145.318 50.4756L145.311 50.4672Z" fill="#6C63FF"/>
</g>
<defs>
<linearGradient id="paint0_linear" x1="74.488" y1="162.351" x2="74.488" y2="33.4248" gradientUnits="userSpaceOnUse">
<stop stop-color="#808080" stop-opacity="0.25"/>
<stop offset="0.54" stop-color="#808080" stop-opacity="0.12"/>
<stop offset="1" stop-color="#808080" stop-opacity="0.1"/>
</linearGradient>
<linearGradient id="paint1_linear" x1="46661.4" y1="97276.6" x2="46661.4" y2="31097.6" gradientUnits="userSpaceOnUse">
<stop stop-color="#808080" stop-opacity="0.25"/>
<stop offset="0.54" stop-color="#808080" stop-opacity="0.12"/>
<stop offset="1" stop-color="#808080" stop-opacity="0.1"/>
</linearGradient>
<clipPath id="clip0">
<rect width="231" height="164" fill="white"/>
</clipPath>
</defs>
</svg>
