<svg width="20" height="20" viewBox="0 0 20 20" fill="none" xmlns="http://www.w3.org/2000/svg">
<path d="M11.6524 8.20947C11.6524 9.12205 10.9126 9.862 10 9.862C9.08743 9.862 8.34766 9.12205 8.34766 8.20947C8.34766 7.2969 9.08743 6.55713 10 6.55713C10.9126 6.55713 11.6524 7.2969 11.6524 8.20947Z" fill="black"/>
<path d="M10.0002 12.3858C9.21019 12.3804 8.45201 12.6966 7.90011 13.2619C7.40978 13.7619 7.1144 14.4286 7.04297 15.1572H12.9574C12.886 14.4238 12.5906 13.7619 12.1003 13.2619C11.5484 12.6966 10.7902 12.3804 10.0002 12.3858Z" fill="black"/>
<path d="M15.7139 0H4.2853C3.41774 0.000930057 2.7148 0.703869 2.71387 1.57143V18.4286C2.7148 19.2961 3.41774 19.9991 4.2853 20H15.7139C16.5814 19.9991 17.2844 19.2961 17.2853 18.4286V1.57143C17.2844 0.703869 16.5814 0.000930057 15.7139 0ZM8.01391 1.57626H11.8234C12.0074 1.57626 12.1568 1.72545 12.1568 1.9096C12.1568 2.09356 12.0074 2.24293 11.8234 2.24293H8.01391C7.82975 2.24293 7.68057 2.09356 7.68057 1.9096C7.68057 1.72545 7.82975 1.57626 8.01391 1.57626ZM9.99958 5.89044C11.279 5.89174 12.3152 6.93006 12.3139 8.20945C12.3126 9.48903 11.2743 10.5251 9.99475 10.5238C8.71536 10.5225 7.67927 9.48419 7.68057 8.2048C7.68466 6.92653 8.72131 5.89193 9.99958 5.89044ZM13.3043 15.8238H6.69489C6.60617 15.8244 6.52116 15.7894 6.45847 15.7267C6.39579 15.6641 6.361 15.5791 6.36156 15.4905C6.36156 14.4524 6.73768 13.4952 7.42332 12.7952C8.10375 12.1066 9.03158 11.7191 9.99958 11.7191C10.9676 11.7191 11.8954 12.1066 12.5758 12.7952C13.2615 13.4952 13.6376 14.4524 13.6376 15.4905C13.6382 15.5791 13.6034 15.6641 13.5407 15.7267C13.478 15.7894 13.393 15.8244 13.3043 15.8238Z" fill="black"/>
</svg>
