<svg width="20" height="20" viewBox="0 0 20 20" fill="none" xmlns="http://www.w3.org/2000/svg">
<path d="M18.5852 3.90997L14.7907 4.2361C14.7715 4.23775 14.7533 4.24491 14.7381 4.25672C14.7229 4.26853 14.7114 4.28448 14.7051 4.30265C14.6988 4.32082 14.6978 4.34044 14.7024 4.35913C14.707 4.37783 14.7168 4.3948 14.7308 4.408L15.688 5.31076L15.4756 5.52763L15.3338 5.67232L14.6141 6.41945C14.3368 6.71174 14.0606 7.00471 13.7855 7.29838C13.5884 7.50959 13.3924 7.72205 13.1976 7.93575C12.7311 8.44631 12.2706 8.96269 11.816 9.4849C11.5898 9.74683 11.3645 10.01 11.1424 10.2761C11.0834 10.3468 11.0252 10.4183 10.9666 10.4894L10.7292 10.3559L7.0251 8.27376L6.43388 7.94157L6.01021 8.40307L5.48011 8.98057L1.30664 13.5266L2.18308 14.3814L6.69872 10.0237H6.69914L9.34258 11.7433L10.6942 12.6227L11.1844 12.9416L11.2967 13.0143L11.9345 12.4555C12.1956 12.2265 12.4527 11.9936 12.7057 11.7571C12.9598 11.5209 13.21 11.2818 13.4595 11.0419C13.9576 10.5609 14.4483 10.0732 14.9317 9.57886C15.4174 9.08617 15.8938 8.58476 16.369 8.08251L17.0763 7.32332L17.1719 7.21896L17.4219 6.94607L18.3359 7.80802C18.3497 7.82109 18.367 7.82992 18.3857 7.83346C18.4045 7.837 18.4238 7.83511 18.4415 7.82801C18.4591 7.82092 18.4744 7.80891 18.4855 7.79341C18.4965 7.77791 18.5029 7.75956 18.5039 7.74054L18.6934 4.01438C18.6941 4.00016 18.6917 3.98595 18.6865 3.9727C18.6813 3.95945 18.6733 3.94748 18.663 3.93759C18.6528 3.9277 18.6405 3.92011 18.6271 3.91535C18.6137 3.91059 18.5994 3.90875 18.5852 3.90997Z" fill="#2E79BD"/>
<path d="M2.20203 19.3855C2.20215 19.472 2.23656 19.5549 2.29771 19.6161C2.35885 19.6772 2.44175 19.7116 2.52823 19.7117H4.78939C4.87587 19.7116 4.95876 19.6772 5.01991 19.6161C5.08106 19.5549 5.11547 19.472 5.1156 19.3855V12.7878L2.20203 15.5994V19.3855Z" fill="#2D3E50"/>
<path d="M6.24255 11.7002V19.3855C6.24268 19.472 6.27709 19.5549 6.33823 19.6161C6.39938 19.6772 6.48228 19.7116 6.56875 19.7117H8.82992C8.91639 19.7116 8.99929 19.6772 9.06044 19.6161C9.12158 19.5549 9.15599 19.472 9.15612 19.3855V12.6832L6.8071 11.1553L6.24255 11.7002Z" fill="#2D3E50"/>
<path d="M11.3771 14.1267L10.2828 13.4161V19.3856C10.283 19.4721 10.3174 19.555 10.3785 19.6161C10.4397 19.6772 10.5226 19.7117 10.609 19.7118H12.8702C12.9567 19.7117 13.0396 19.6772 13.1007 19.6161C13.1619 19.555 13.1963 19.4721 13.1964 19.3856V12.5157C12.9792 12.717 12.752 12.9216 12.521 13.1244L11.3771 14.1267Z" fill="#2D3E50"/>
<path d="M15.5651 10.2034C15.1174 10.6593 14.7081 11.0674 14.3234 11.4429V19.3855C14.3235 19.472 14.3579 19.5549 14.419 19.6161C14.4802 19.6772 14.5631 19.7116 14.6496 19.7117H16.9107C16.9972 19.7116 17.0801 19.6772 17.1412 19.6161C17.2024 19.5549 17.2368 19.472 17.2369 19.3855V8.45596L17.0153 8.69394C16.556 9.17917 16.0659 9.69553 15.5651 10.2034Z" fill="#2D3E50"/>
<path d="M11.2899 6.19081C11.1498 6.2935 10.8888 6.34506 10.507 6.34548C10.1821 6.34717 9.85853 6.30299 9.54595 6.21426C9.2772 6.13966 9.01528 6.04232 8.76304 5.92328L8.35986 7.0016C8.5662 7.09886 8.7776 7.18499 8.99316 7.25962C9.35268 7.37777 9.72602 7.44873 10.1038 7.47071V8.58643H11.2855V7.4422C11.5548 7.40395 11.8161 7.3217 12.0589 7.19876C12.2534 7.09824 12.4268 6.96138 12.5698 6.79558C12.6972 6.64631 12.793 6.47269 12.8513 6.28527C12.907 6.10456 12.9354 5.91652 12.9356 5.7274C12.9412 5.47915 12.8916 5.23275 12.7904 5.006C12.6943 4.80067 12.5571 4.61726 12.3872 4.46715C12.2026 4.30543 11.9978 4.16821 11.778 4.0589C11.53 3.93393 11.2747 3.82406 11.0135 3.72989C10.8322 3.66713 10.6775 3.60923 10.5495 3.55619C10.4371 3.51107 10.3289 3.45613 10.2262 3.39201C10.1475 3.34452 10.0816 3.27859 10.0341 3.19992C9.99124 3.12083 9.97003 3.03183 9.97258 2.94192C9.97101 2.86522 9.98814 2.7893 10.0225 2.72071C10.0568 2.65212 10.1074 2.59292 10.1697 2.54824C10.3644 2.43153 10.5908 2.37897 10.817 2.398C11.1055 2.39665 11.3933 2.42812 11.6747 2.49182C11.9197 2.54596 12.1596 2.62126 12.3917 2.71687L12.6826 1.59164C12.5019 1.51462 12.3154 1.45188 12.1248 1.40399C11.8492 1.33484 11.5685 1.28778 11.2855 1.26326V0.288269H10.1038V1.3013C9.85503 1.34228 9.61445 1.42297 9.39127 1.54028C9.20924 1.63488 9.04792 1.76485 8.91675 1.92258C8.78558 2.08031 8.6872 2.26263 8.62738 2.45885C8.5675 2.65158 8.53737 2.8523 8.538 3.05411C8.52936 3.27721 8.57275 3.49926 8.66473 3.7027C8.75671 3.90613 8.89477 4.08538 9.06797 4.22626C9.23113 4.3596 9.41073 4.47146 9.60237 4.55907C9.79953 4.64972 10.0011 4.73255 10.2071 4.80757C10.4195 4.88301 10.6072 4.95274 10.7701 5.01866C10.9104 5.07321 11.0454 5.1407 11.1733 5.22026C11.2691 5.27955 11.3519 5.35761 11.4167 5.44975C11.4748 5.5406 11.5042 5.64686 11.501 5.75467C11.5048 5.83918 11.4875 5.9233 11.4506 5.99945C11.4138 6.07559 11.3585 6.14136 11.2899 6.19081Z" fill="#2D3E50"/>
</svg>
