<svg width="20" height="20" viewBox="0 0 20 20" fill="none" xmlns="http://www.w3.org/2000/svg">
<g clip-path="url(#clip0)">
<path d="M19.6111 15.9032L17.3939 14.4249L15.4228 13.1112C15.0425 12.8581 14.5313 12.9411 14.2504 13.3015L13.0308 14.8694C12.7688 15.2097 12.2975 15.3074 11.9218 15.0994C11.0943 14.6391 10.1156 14.2057 7.95637 12.0436C5.7971 9.88157 5.3609 8.90572 4.90055 8.07815C4.69254 7.70245 4.79032 7.23117 5.13055 6.96922L6.69846 5.74958C7.05888 5.4688 7.14189 4.9576 6.88881 4.57717L5.61538 2.66684L4.09677 0.388902C3.8383 0.00117267 3.32088 -0.115232 2.92128 0.124413L1.16989 1.1751C0.696574 1.45397 0.348649 1.90428 0.198182 2.43267C-0.280758 4.17886 -0.377319 8.03088 5.79605 14.2042C11.9694 20.3776 15.8211 20.2807 17.5673 19.8018C18.0957 19.6513 18.546 19.3034 18.8248 18.8301L19.8755 17.0787C20.1152 16.6791 19.9988 16.1617 19.6111 15.9032Z" fill="black"/>
<path d="M11.379 3.1034C14.615 3.10699 17.2374 5.72938 17.241 8.9654C17.241 9.15583 17.3954 9.31024 17.5858 9.31024C17.7762 9.31024 17.9307 9.15587 17.9307 8.9654C17.9267 5.34868 14.9957 2.41774 11.379 2.41376C11.1886 2.41376 11.0342 2.56813 11.0342 2.7586C11.0341 2.94899 11.1885 3.1034 11.379 3.1034Z" fill="black"/>
<path d="M11.379 5.17228C13.4729 5.17475 15.1696 6.87152 15.1721 8.96533C15.1721 9.15575 15.3264 9.31017 15.5169 9.31017C15.7073 9.31017 15.8617 9.15579 15.8617 8.96533C15.8589 6.49079 13.8536 4.48546 11.379 4.4826C11.1886 4.4826 11.0342 4.63698 11.0342 4.82744C11.0342 5.01791 11.1886 5.17228 11.379 5.17228Z" fill="black"/>
<path d="M11.379 7.24122C12.3307 7.24235 13.102 8.01359 13.1031 8.96534C13.1031 9.15576 13.2575 9.31017 13.4479 9.31017C13.6384 9.31017 13.7928 9.1558 13.7928 8.96534C13.7913 7.63289 12.7115 6.5531 11.379 6.55157C11.1886 6.55157 11.0342 6.70595 11.0342 6.89641C11.0341 7.08684 11.1885 7.24122 11.379 7.24122Z" fill="black"/>
</g>
<defs>
<clipPath id="clip0">
<rect width="20" height="20" fill="white"/>
</clipPath>
</defs>
</svg>
