<svg width="20" height="20" viewBox="0 0 20 20" fill="none" xmlns="http://www.w3.org/2000/svg">
<g clip-path="url(#clip0)">
<path d="M17.8152 14.0942C16.5552 13.0292 15.8327 11.4725 15.8327 9.82333V7.5C15.8327 4.5675 13.6543 2.14 10.8327 1.73333V0.833333C10.8327 0.3725 10.4593 0 9.99935 0C9.53935 0 9.16602 0.3725 9.16602 0.833333V1.73333C6.34352 2.14 4.16602 4.5675 4.16602 7.5V9.82333C4.16602 11.4725 3.44352 13.0292 2.17602 14.1008C1.85185 14.3783 1.66602 14.7817 1.66602 15.2083C1.66602 16.0125 2.32018 16.6667 3.12435 16.6667H16.8743C17.6785 16.6667 18.3327 16.0125 18.3327 15.2083C18.3327 14.7817 18.1468 14.3783 17.8152 14.0942Z" fill="black"/>
<path d="M9.99917 20C11.5083 20 12.7708 18.9242 13.0608 17.5H6.9375C7.2275 18.9242 8.49 20 9.99917 20Z" fill="black"/>
</g>
<defs>
<clipPath id="clip0">
<rect width="20" height="20" fill="white"/>
</clipPath>
</defs>
</svg>
