<svg width="30" height="30" viewBox="0 0 30 30" fill="none" xmlns="http://www.w3.org/2000/svg">
<g clip-path="url(#clip0)">
<path d="M18.125 30.0002C17.7087 30.0002 17.3175 29.7927 17.085 29.444L14.9563 26.2502H12.5C11.81 26.2502 11.25 25.6902 11.25 25.0002C11.25 24.3102 11.81 23.7502 12.5 23.7502H15.625C16.0425 23.7502 16.4325 23.959 16.665 24.3065L17.97 26.264L20.7562 20.6902C20.9612 20.2827 21.37 20.0177 21.8263 20.0002C22.3113 19.989 22.7113 20.2152 22.9463 20.6052L26.3325 26.2502H28.75C29.44 26.2502 30 26.8102 30 27.5002C30 28.1902 29.44 28.7502 28.75 28.7502H25.625C25.1862 28.7502 24.7787 28.5202 24.5537 28.144L21.975 23.8465L19.2438 29.3102C19.0438 29.709 18.6475 29.9715 18.2025 29.999C18.1775 30.0002 18.1512 30.0002 18.125 30.0002Z" fill="#C4C4C4"/>
<path d="M11.2499 12.5C14.7017 12.5 17.4999 9.70178 17.4999 6.25C17.4999 2.79822 14.7017 0 11.2499 0C7.79816 0 4.99994 2.79822 4.99994 6.25C4.99994 9.70178 7.79816 12.5 11.2499 12.5Z" fill="#C4C4C4"/>
<path d="M8.75 25C8.75 22.9325 10.4325 21.25 12.5 21.25H15.625C16.2738 21.25 16.8988 21.4163 17.4475 21.7213L18.5212 19.5725C19.0675 18.4838 20.1075 17.77 21.2887 17.58C20.1513 16.0238 18.3263 15 16.25 15H6.25C2.79875 15 0 17.7988 0 21.25V25.3125C0 25.83 0.42 26.25 0.9375 26.25H8.98C8.84 25.8575 8.75 25.44 8.75 25Z" fill="#C4C4C4"/>
</g>
<defs>
<clipPath id="clip0">
<rect width="30" height="30" fill="#C4C4C4"/>
</clipPath>
</defs>
</svg>
