<svg width="16" height="18" viewBox="0 0 16 18" fill="none" xmlns="http://www.w3.org/2000/svg">
<path d="M8 0C5.383 0 3.25391 2.1291 3.25391 4.74609C3.25391 7.36309 5.383 9.49219 8 9.49219C10.617 9.49219 12.7461 7.36309 12.7461 4.74609C12.7461 2.1291 10.617 0 8 0Z" fill="black"/>
<path d="M13.9051 12.5928C12.6057 11.2734 10.8831 10.5469 9.05469 10.5469H6.94531C5.11691 10.5469 3.39432 11.2734 2.09495 12.5928C0.801934 13.9057 0.0898438 15.6387 0.0898438 17.4727C0.0898438 17.7639 0.325953 18 0.617188 18H15.3828C15.674 18 15.9102 17.7639 15.9102 17.4727C15.9102 15.6387 15.1981 13.9057 13.9051 12.5928Z" fill="black"/>
</svg>
