<svg width="19" height="20" viewBox="0 0 19 20" fill="none" xmlns="http://www.w3.org/2000/svg">
<path d="M17.3359 8.76444H10.6641V1.70038C10.6641 1.06283 10.1677 0.5 9.5 0.5C8.83235 0.5 8.33594 1.06283 8.33594 1.70038V8.76444H1.66406C0.996409 8.76444 0.5 9.32727 0.5 9.96481C0.5 10.6024 0.996409 11.1652 1.66406 11.1652H8.33594V18.2292C8.33594 18.8668 8.83235 19.4296 9.5 19.4296C10.1677 19.4296 10.6641 18.8668 10.6641 18.2292V11.1652H17.3359C18.0036 11.1652 18.5 10.6024 18.5 9.96481C18.5 9.32727 18.0036 8.76444 17.3359 8.76444Z" fill="white" stroke="white"/>
</svg>
