<svg width="18" height="12" viewBox="0 0 18 12" fill="none" xmlns="http://www.w3.org/2000/svg">
<path d="M17.8901 5.73481L12.2651 0.109811C12.1186 -0.0366851 11.8813 -0.0366851 11.7349 0.109811C11.5884 0.256307 11.5884 0.493612 11.7349 0.640073L16.7198 5.62495H0.375012C0.16773 5.62495 0 5.79268 0 5.99996C0 6.20724 0.16773 6.37497 0.375012 6.37497H16.7198L11.7349 11.3598C11.5884 11.5063 11.5884 11.7436 11.7349 11.8901C11.8081 11.9633 11.9041 11.9999 12 11.9999C12.096 11.9999 12.1919 11.9633 12.2652 11.8901L17.8902 6.26507C18.0366 6.11861 18.0366 5.88131 17.8901 5.73481Z" fill="black"/>
</svg>
