<svg width="30" height="30" viewBox="0 0 30 30" fill="none" xmlns="http://www.w3.org/2000/svg">
<g clip-path="url(#clip0)">
<path d="M18.5 17.5H17.95C17.7431 17.5004 17.5581 17.3713 17.487 17.177C17.426 17.017 17.3605 16.8605 17.29 16.7055C17.2024 16.517 17.2424 16.2938 17.39 16.1475L17.782 15.755C18.3639 15.1679 18.3629 14.2212 17.7795 13.6355L16.3665 12.2225C15.7801 11.6395 14.8329 11.6395 14.2465 12.2225L13.8545 12.614C13.7079 12.7611 13.4851 12.801 13.2965 12.714C13.1415 12.6435 12.985 12.578 12.8245 12.514C12.6292 12.4434 12.4993 12.2577 12.5 12.05V11.5C12.5 10.6716 11.8284 10 11 10H9C8.17156 10 7.5 10.6716 7.5 11.5V12.05C7.50037 12.2569 7.37131 12.4419 7.177 12.513C7.017 12.574 6.8605 12.6395 6.7055 12.71C6.51694 12.7972 6.29406 12.7573 6.1475 12.61L5.755 12.218C5.16862 11.6354 4.22188 11.6354 3.6355 12.218L2.2225 13.6355C1.6395 14.2219 1.6395 15.1691 2.2225 15.7555L2.614 16.1475C2.76163 16.2938 2.80163 16.517 2.714 16.7055C2.6435 16.8605 2.578 17.017 2.5165 17.1775C2.44494 17.3729 2.25812 17.5021 2.05 17.5H1.5C0.671562 17.5 0 18.1716 0 19V21C0 21.8284 0.671562 22.5 1.5 22.5H2.05C2.25688 22.4996 2.44194 22.6287 2.513 22.823C2.574 22.983 2.6395 23.1395 2.71 23.2945C2.79763 23.483 2.75762 23.7062 2.61 23.8525L2.218 24.245C1.63538 24.8314 1.63538 25.7781 2.218 26.3645L3.631 27.7775C4.21744 28.3605 5.16456 28.3605 5.751 27.7775L6.143 27.386C6.28963 27.2389 6.51244 27.199 6.701 27.286C6.856 27.3565 7.0125 27.422 7.173 27.486C7.36931 27.5558 7.50037 27.7417 7.5 27.95V28.5C7.5 29.3284 8.17156 30 9 30H11C11.8284 30 12.5 29.3284 12.5 28.5V27.95C12.4996 27.7431 12.6287 27.5581 12.823 27.487C12.983 27.426 13.1395 27.3605 13.2945 27.29C13.4831 27.2028 13.7059 27.2428 13.8525 27.39L14.245 27.782C14.8322 28.3637 15.7787 28.3626 16.3645 27.7795L17.7775 26.3665C18.3605 25.7801 18.3605 24.8329 17.7775 24.2465L17.386 23.8545C17.2384 23.7082 17.1984 23.485 17.286 23.2965C17.3565 23.1415 17.422 22.985 17.486 22.8245C17.5566 22.6292 17.7423 22.4993 17.95 22.5H18.5C19.3284 22.5 20 21.8284 20 21V19C20 18.1716 19.3284 17.5 18.5 17.5ZM19 21C19 21.2761 18.7761 21.5 18.5 21.5H17.95C17.3284 21.5023 16.7722 21.8865 16.55 22.467C16.497 22.607 16.4397 22.7448 16.378 22.8805C16.1209 23.448 16.2402 24.1153 16.678 24.5585L17.069 24.95C17.2644 25.1451 17.2646 25.4618 17.0694 25.6571C17.0692 25.6573 17.0691 25.6574 17.069 25.6575L15.656 27.0705C15.4608 27.2657 15.1442 27.2657 14.949 27.0705L14.557 26.679C14.1139 26.2408 13.4464 26.1215 12.879 26.379C12.7435 26.4405 12.6055 26.498 12.4665 26.551C11.8864 26.7731 11.5025 27.3289 11.5 27.95V28.5C11.5 28.7761 11.2761 29 11 29H9C8.72388 29 8.5 28.7761 8.5 28.5V27.95C8.49769 27.3284 8.1135 26.7722 7.533 26.55C7.393 26.497 7.25519 26.4397 7.1195 26.378C6.552 26.1211 5.88481 26.2404 5.4415 26.678L5.05 27.069C4.85488 27.2644 4.53825 27.2646 4.34288 27.0694C4.34275 27.0693 4.34263 27.0691 4.3425 27.069L2.9295 25.6575C2.73431 25.4623 2.73431 25.1458 2.9295 24.9505L3.321 24.5585C3.75881 24.1153 3.87806 23.448 3.621 22.8805C3.5595 22.745 3.502 22.607 3.449 22.468C3.22737 21.8873 2.6715 21.5028 2.05 21.5H1.5C1.22388 21.5 1 21.2761 1 21V19C1 18.7239 1.22388 18.5 1.5 18.5H2.05C2.67156 18.4977 3.22781 18.1135 3.45 17.533C3.503 17.393 3.56031 17.2552 3.622 17.1195C3.87906 16.552 3.75975 15.8848 3.322 15.4415L2.929 15.05C2.73362 14.8549 2.73344 14.5383 2.92863 14.3429C2.92875 14.3428 2.92887 14.3426 2.929 14.3425L4.342 12.9295C4.53725 12.7343 4.85375 12.7343 5.049 12.9295L5.441 13.321C5.88406 13.7592 6.55156 13.8785 7.119 13.621C7.2545 13.5595 7.3925 13.502 7.5315 13.449C8.11238 13.2276 8.49719 12.6716 8.5 12.05V11.5C8.5 11.2239 8.72388 11 9 11H11C11.2761 11 11.5 11.2239 11.5 11.5V12.05C11.5023 12.6716 11.8865 13.2278 12.467 13.45C12.607 13.503 12.7448 13.5603 12.8805 13.622C13.4479 13.8795 14.1154 13.7602 14.5585 13.322L14.95 12.931C15.146 12.7371 15.4615 12.7371 15.6575 12.931L17.0705 14.344C17.2657 14.5393 17.2657 14.8558 17.0705 15.051L16.679 15.443C16.2413 15.8863 16.1219 16.5535 16.379 17.121C16.4405 17.2565 16.498 17.3945 16.551 17.5335C16.7731 18.1136 17.3289 18.4975 17.95 18.5H18.5C18.7761 18.5 19 18.7239 19 19V21Z" fill="#C4C4C4"/>
<path d="M14.49 19.8C14.485 19.68 14.4765 19.5605 14.462 19.4415C14.446 19.3135 14.427 19.1865 14.4005 19.062C14.383 18.9805 14.36 18.9 14.338 18.819C14.31 18.716 14.2785 18.6145 14.2435 18.5145C14.219 18.445 14.1935 18.376 14.1675 18.3075C14.1031 18.1474 14.0295 17.991 13.947 17.8395C13.9405 17.828 13.9365 17.8155 13.93 17.804C13.7999 17.5725 13.6493 17.353 13.48 17.1485C13.4655 17.1305 13.449 17.1135 13.434 17.096C13.365 17.0145 13.294 16.9355 13.2195 16.86C13.1805 16.8195 13.1395 16.7815 13.0985 16.7425C13.0485 16.696 12.9985 16.65 12.9485 16.606C12.8878 16.5533 12.826 16.5023 12.763 16.453L12.681 16.392C11.9073 15.8125 10.9666 15.4995 9.99997 15.5C9.94997 15.5 9.89997 15.5075 9.84997 15.5095C9.74347 15.5125 9.63647 15.5185 9.52897 15.5295C9.47247 15.5355 9.41547 15.542 9.35897 15.55C9.19597 15.5714 9.03422 15.6017 8.87447 15.6405C6.46691 16.2626 5.01953 18.7187 5.64166 21.1263C6.05166 22.7128 7.29116 23.9513 8.87797 24.36C8.88597 24.36 8.89447 24.3625 8.90297 24.3645C9.07566 24.4076 9.25059 24.441 9.42697 24.4645C9.54347 24.479 9.65997 24.482 9.77697 24.4875C9.85497 24.4915 9.92697 24.503 10.0085 24.503C10.151 24.503 10.299 24.4935 10.45 24.4785C10.466 24.4785 10.482 24.474 10.5 24.472C10.6215 24.4585 10.7445 24.4405 10.87 24.4155C10.92 24.406 10.9665 24.3935 11.0145 24.3825C11.1025 24.362 11.19 24.3405 11.28 24.314C11.35 24.293 11.418 24.2685 11.4865 24.2445C11.555 24.2205 11.626 24.1945 11.697 24.1675C11.768 24.1405 11.8275 24.1095 11.892 24.0795C11.976 24.041 12.0595 24.003 12.142 23.958H12.145C12.6116 23.7082 13.0426 23.3969 13.4265 23.0325C13.5302 22.9357 13.6203 22.8254 13.6945 22.7045C14.0847 22.0789 14.3411 21.3792 14.4475 20.6495C14.4615 20.553 14.474 20.4565 14.4815 20.358C14.4885 20.2675 14.4935 20.1775 14.4955 20.0875C14.4955 20.059 14.4995 20.032 14.4995 20.0035C14.5 19.933 14.493 19.868 14.49 19.8ZM13.4935 20.1275C13.4935 20.169 13.49 20.2105 13.4875 20.2515C13.4785 20.3725 13.463 20.4935 13.4425 20.615C13.2556 21.6545 12.6102 22.5546 11.6855 23.065C11.6235 23.0975 11.5625 23.128 11.5015 23.156L11.46 23.176C11.1695 23.3079 10.8628 23.4007 10.548 23.452C10.526 23.4555 10.5035 23.4595 10.481 23.4625C10.4185 23.4715 10.357 23.479 10.296 23.4845C10.2155 23.4915 10.1345 23.4955 10.052 23.497C10.017 23.497 9.98247 23.497 9.94747 23.497C9.82916 23.4956 9.71103 23.4883 9.59347 23.475L9.53347 23.468C9.39597 23.45 9.25959 23.4243 9.12497 23.391C7.25234 22.9117 6.12284 21.005 6.60209 19.1324C6.91878 17.895 7.88441 16.9284 9.12147 16.6105V16.61C9.40872 16.5375 9.70372 16.5005 9.99997 16.5C10.1429 16.5008 10.2857 16.5105 10.4275 16.529C10.4655 16.5335 10.503 16.5405 10.5405 16.546C10.6485 16.563 10.7555 16.5845 10.861 16.6115C10.8955 16.6205 10.93 16.6285 10.964 16.638C11.2298 16.7147 11.4858 16.8225 11.7265 16.959C11.765 16.9815 11.8025 17.005 11.8405 17.0285C11.9195 17.0785 11.996 17.1285 12.0715 17.1855C12.112 17.215 12.153 17.244 12.192 17.2755C12.2901 17.3539 12.384 17.4373 12.4735 17.5255C12.509 17.5615 12.5415 17.601 12.576 17.6385C12.6335 17.701 12.6895 17.765 12.743 17.8325C12.78 17.879 12.8155 17.927 12.8505 17.9755C12.9005 18.0475 12.9505 18.1225 12.9955 18.1985C13.0205 18.24 13.0455 18.2805 13.071 18.323C13.1355 18.4417 13.1929 18.564 13.243 18.6895C13.263 18.7395 13.28 18.7895 13.298 18.8395C13.3305 18.9315 13.3585 19.0245 13.383 19.1185C13.3955 19.1685 13.4095 19.213 13.42 19.2615C13.4492 19.3966 13.4703 19.5334 13.4835 19.671C13.4865 19.7075 13.4865 19.7445 13.489 19.781C13.496 19.896 13.498 20.0115 13.4935 20.1275Z" fill="#C4C4C4"/>
<path d="M28.5 10.5H26.9275C26.7178 10.5021 26.5302 10.3701 26.4615 10.172C26.3064 9.70756 26.1188 9.25456 25.9 8.8165C25.8071 8.62731 25.8458 8.39987 25.996 8.252L27.111 7.1355C27.6962 6.54981 27.6962 5.60069 27.111 5.015L24.985 2.8925C24.3993 2.30725 23.4502 2.30725 22.8645 2.8925L21.75 4.0065C21.6023 4.15662 21.3752 4.1955 21.186 4.103C20.7478 3.88306 20.2947 3.69444 19.83 3.5385C19.6311 3.47044 19.4981 3.28269 19.5 3.0725V1.5C19.5 0.671562 18.8284 0 18 0H15C14.1715 0 13.5 0.671562 13.5 1.5V3.0725C13.5021 3.28219 13.3701 3.46975 13.172 3.5385C12.7075 3.69438 12.2545 3.88287 11.8165 4.1025C11.6273 4.19569 11.3997 4.157 11.252 4.0065L10.1355 2.8915C9.54909 2.30794 8.60134 2.30794 8.01497 2.8915L5.89297 5.0135C5.30741 5.59925 5.30741 6.54875 5.89297 7.1345L7.53247 8.777C7.73078 8.96913 8.04734 8.96412 8.23947 8.76575C8.42691 8.57225 8.42734 8.265 8.24047 8.071L6.59997 6.429C6.40478 6.23375 6.40478 5.91725 6.59997 5.722L8.72197 3.6C8.91722 3.40481 9.23372 3.40481 9.42897 3.6L10.546 4.715C10.9979 5.16963 11.6904 5.28325 12.264 4.997C12.66 4.79869 13.0695 4.62844 13.4895 4.4875C14.0956 4.28231 14.5026 3.71244 14.5 3.0725V1.5C14.5 1.22388 14.7238 1 15 1H18C18.2761 1 18.5 1.22388 18.5 1.5V3.0725C18.4974 3.71231 18.9044 4.282 19.5105 4.487C19.9306 4.628 20.3403 4.79838 20.7365 4.997C21.3102 5.28175 22.0017 5.168 22.454 4.7145L23.571 3.6C23.7662 3.40481 24.0827 3.40481 24.278 3.6L26.4 5.7225C26.5948 5.91769 26.5948 6.23381 26.4 6.429L25.285 7.546C24.8308 7.99819 24.7172 8.69038 25.003 9.264C25.2013 9.66006 25.3715 10.0696 25.5125 10.4895C25.7175 11.0957 26.2875 11.5028 26.9275 11.5H28.5C28.7761 11.5 29 11.7239 29 12V15C29 15.2761 28.7761 15.5 28.5 15.5H26.9275C26.2877 15.4974 25.718 15.9044 25.513 16.5105C25.372 16.9306 25.2016 17.3403 25.003 17.7365C24.7177 18.3101 24.8315 19.0019 25.2855 19.454L26.4005 20.571C26.5957 20.7662 26.5957 21.0828 26.4005 21.278L24.2775 23.4C24.0823 23.5949 23.7662 23.5949 23.571 23.4L21.928 21.7605C21.7358 21.5621 21.4193 21.5571 21.221 21.7493C21.0226 21.9414 21.0176 22.2579 21.2097 22.4562C21.2137 22.4604 21.2178 22.4645 21.222 22.4685L22.8645 24.108C23.4502 24.6933 24.3993 24.6933 24.985 24.108L27.107 21.9865C27.6925 21.4007 27.6925 20.4513 27.107 19.8655L25.9935 18.75C25.8435 18.6022 25.8047 18.3752 25.897 18.186C26.1169 17.7479 26.3055 17.2948 26.4615 16.83C26.5295 16.6311 26.7173 16.4981 26.9275 16.5H28.5C29.3284 16.5 30 15.8284 30 15V12C30 11.1716 29.3284 10.5 28.5 10.5Z" fill="#C4C4C4"/>
<path d="M21.096 8.90393C18.5561 6.36937 14.4439 6.36937 11.904 8.90393C11.7122 9.10255 11.7177 9.41911 11.9163 9.61093C12.1101 9.79805 12.4173 9.79805 12.611 9.61093C14.7444 7.44868 18.2268 7.42537 20.389 9.5588C22.5513 11.6922 22.5746 15.1746 20.4411 17.3368C20.4239 17.3543 20.4065 17.3717 20.389 17.3889C20.1904 17.5808 20.1849 17.8973 20.3768 18.0959C20.5686 18.2946 20.8851 18.3 21.0838 18.1082C21.0879 18.1042 21.092 18.1001 21.096 18.0959C23.6306 15.5561 23.6306 11.4438 21.096 8.90393Z" fill="#C4C4C4"/>
</g>
<defs>
<clipPath id="clip0">
<rect width="30" height="30" fill="white"/>
</clipPath>
</defs>
</svg>