<?xml version="1.0"?><svg fill="#000000" xmlns="http://www.w3.org/2000/svg"  viewBox="0 0 24 24" width="24px" height="24px">    <path d="M 10 3 C 9.447 3 9 3.448 9 4 L 4 4 C 2.895 4 2 4.895 2 6 L 2 8 L 22 8 L 22 6 C 22 4.895 21.105 4 20 4 L 15 4 C 15 3.448 14.553 3 14 3 L 10 3 z M 2 10 L 2 18 C 2 19.105 2.895 20 4 20 L 20 20 C 21.105 20 22 19.105 22 18 L 22 10 L 19 10 L 19 10.5 C 19 10.776 18.776 11 18.5 11 L 15.5 11 C 15.224 11 15 10.776 15 10.5 L 15 10 L 9 10 L 9 10.5 C 9 10.776 8.776 11 8.5 11 L 5.5 11 C 5.224 11 5 10.776 5 10.5 L 5 10 L 2 10 z"/></svg>